<svg width="558" height="240" viewBox="0 0 558 240" fill="none" xmlns="http://www.w3.org/2000/svg">
<path d="M0 239H557.5" stroke="#24333D" stroke-width="2"/>
<path d="M101 52.0001V56.0001" stroke="#24333D" stroke-linecap="round"/>
<path d="M56.5 84.5001C57.5574 80.3889 57.8645 78.091 58 74.0001" stroke="#24333D"/>
<path d="M95 228L84 228.5V238H90.5V237H92.5V238H109C109.31 234.806 105 233 99.5 232C97.8699 231.704 95 228 95 228Z" fill="#24333D"/>
<path d="M99.5 66.0001V78.0001M84 228.5L95 228C95 228 97.8699 231.704 99.5 232C105 233 109.31 234.806 109 238H92.5V237H90.5V238H84V228.5Z" stroke="#24333D" stroke-linecap="round"/>
<path d="M64.0001 228.5C60.2382 229.105 58.1547 228.662 54.5001 228C54.5001 228 52.0001 234.5 52.0001 235C52.0001 235.5 51.9612 236.693 52.0001 238.028C52.039 239.364 67.035 239.343 67.0001 238.028C66.9651 236.714 67.0001 235.5 67.0001 235C67.0001 234.5 64.0001 228.5 64.0001 228.5Z" fill="#24333D" stroke="#24333D" stroke-linecap="round"/>
<path d="M101 106.5C101 106.5 103 137.5 103 138C103 138.5 94.0387 140.437 91.4999 139.5C88.9611 138.564 83.5476 122.634 83.9999 123C84.5427 123.427 76.6325 138.995 75.4999 139.5C74.3673 140.005 50.9999 139.5 49.9999 138.5C48.9999 137.5 53.9999 103.5 53.9999 103.5M83.9999 123L84 90.5001" stroke="#24333D"/>
<path d="M75.0591 83.6196C75.0591 83.6196 76.7211 83.164 77.5591 83.1196M77.5591 83.1196C78.3971 83.0752 80.3987 90.5736 80.0591 91.1196M77.5591 83.1196C77.5591 83.1196 89.0591 78.1195 89.5591 78.1195C90.0591 78.1195 97.5 82.5001 97.5 83.0001C97.5 83.5001 97.5 85.0001 96.5 85.0001C95.5 85.0001 91.5591 81.6195 91.5591 81.6195C91.5591 81.6195 95.5591 85.1195 95.5591 85.6195C95.5591 86.1195 93.5591 87.6195 93.5591 87.6195M80.0591 91.1196C79.7195 91.6657 76.5591 94.1196 76.5591 94.1196M80.0591 91.1196L85.5591 90.1195M93.5591 87.6195L90.5591 84.1195M93.5591 87.6195C94.0591 89.1195 91.5591 90.6195 91.0591 90.1195M91.0591 90.1195L88.5591 86.6195M91.0591 90.1195C91.0591 90.1195 89.5591 91.6195 89.0591 91.6195C88.5591 91.6195 86.3091 91.9582 86.0591 91.6195C85.8091 91.2808 85.5591 90.1195 85.5591 90.1195M85.5591 90.1195C85.5591 89.6195 87.0591 89.1195 87.0591 89.1195" stroke="#24333D" stroke-linecap="round"/>
<path d="M79.5591 53.6195L78.0591 50.6195L80.5591 47.1195L83.0591 50.6195L82.5591 53.6195L87.0591 69.6195V78.6195L81.5591 80.6195L79.0591 72.1195L79.5591 53.6195Z" fill="#24333D" stroke="#24333D" stroke-linecap="round"/>
<path d="M81.0591 19.6197C82.5586 19.0221 83.4226 18.9021 85.0591 19.6197M91.0591 20.6197C92.5586 20.0221 93.4226 19.9021 95.0591 20.6197" stroke="#24333D" stroke-linecap="round"/>
<path d="M83.0591 23.6195V22.6195H84.0591V23.6195H83.0591Z" stroke="#24333D" stroke-linecap="round"/>
<path d="M92.0591 23.6195V24.6195H93.0591V23.6195H92.0591Z" stroke="#24333D" stroke-linecap="round"/>
<path d="M85.0591 32.6196C86.0591 33.1195 87.5591 33.6195 89.0591 32.6195" stroke="#24333D" stroke-linecap="round"/>
<path d="M87.0591 29.1195C90.0591 28.6195 89.5591 29.1195 89.0591 22.6195" stroke="#24333D" stroke-linecap="round"/>
<path d="M69.5591 20.1195C71.9378 21.2682 72.0607 21.5504 72.0591 23.6195" stroke="#24333D" stroke-linecap="round"/>
<path d="M84.5591 41.6195C81.3715 41.0052 74.5591 33.1195 75.0591 33.6195C75.0591 33.6195 78.7515 36.8267 82.7891 38.5015C83.3752 38.7446 83.9686 38.9555 84.5591 39.1195V41.6195Z" fill="#24333D"/>
<path d="M96.0591 15.1195C96.0591 29.6195 89.0591 47.6195 75.0591 33.6195M75.0591 33.6195C74.5591 33.1195 81.3715 41.0052 84.5591 41.6195V39.1195C79.9013 37.8254 75.0591 33.6195 75.0591 33.6195Z" stroke="#24333D"/>
<path d="M69.0591 18.1195V8.11951C69.0591 6.16689 72.1684 5.60742 74.0591 5.11951C74.8154 4.92434 75.0591 3.11951 75.0591 3.11951C75.0591 3.11951 76.0591 0.619512 78.5591 0.619527C81.488 0.619544 83.3008 0.134411 86.0591 1.11951C93.0591 3.61948 96.0591 5.11949 97.5591 7.11951C98.4963 8.36919 99.0352 9.63173 98.5591 11.1195C98.1299 12.4606 98.1209 13.1947 97.0591 14.1195C94.4087 16.4279 90.8571 15.4419 88.0591 14.1195C85.2611 12.7971 82.0591 11.6195 80.5591 11.6195C79.0591 11.6195 78.0591 12.6195 78.0591 12.6195C77.6565 12.354 77.7804 15.7949 77.5591 16.1195C77.3554 16.4181 74.3298 20.4504 74.0626 21.0466C74.0846 21.0886 74.0843 21.114 74.0591 21.1195C74.0369 21.1243 74.0393 21.0985 74.0626 21.0466C73.842 20.6268 71.3791 18.5482 69.0591 18.1195Z" fill="#24333D"/>
<path d="M72.0591 28.6195V26.1195H69.0591C67.7472 25.4001 67.3599 24.8277 67.0591 23.6195V20.1195C67.2933 18.7252 67.8069 18.3722 69.0591 18.1195M69.0591 18.1195C69.0591 18.1195 69.0591 13.1195 69.0591 8.11951C69.0591 6.16689 72.1684 5.60742 74.0591 5.11951C74.8154 4.92434 75.0591 3.11951 75.0591 3.11951C75.0591 3.11951 76.0591 0.619512 78.5591 0.619527C81.488 0.619544 83.3008 0.134411 86.0591 1.11951C93.0591 3.61948 96.0591 5.11949 97.5591 7.11951C98.4963 8.36919 99.0352 9.63173 98.5591 11.1195C98.1299 12.4606 98.1209 13.1947 97.0591 14.1195C94.4087 16.4279 90.8571 15.4419 88.0591 14.1195C85.2611 12.7971 82.0591 11.6195 80.5591 11.6195C79.0591 11.6195 78.0591 12.6195 78.0591 12.6195C77.6565 12.354 77.7804 15.7949 77.5591 16.1195C77.3377 16.4441 73.7822 21.18 74.0591 21.1195C74.336 21.059 71.6111 18.5911 69.0591 18.1195Z" stroke="#24333D"/>
<path d="M56.5591 85.1195C57.6164 81.0083 57.9236 78.7104 58.0591 74.6195" stroke="#24333D"/>
<path d="M76.5593 95.1196C75.7545 94.3604 75.2548 83.6542 74.0593 83.1196C72.8637 82.5851 48.6808 86.3813 51.0593 87.1196" stroke="#24333D"/>
<path d="M68.0594 41.6195C68.0594 41.6195 66.231 42.4779 65.0594 43.1195C61.1141 46.1764 53.5591 47.6195 49.5591 50.6195C45.5591 53.6195 38.7967 77.1597 39.5594 97.1195C44.8886 108.607 56.3772 103.454 76.5594 94.6195M68.0594 41.6195C69.0594 40.1195 70.5594 38.6195 71.0594 38.6195C71.5594 38.6195 80.0594 46.6195 80.0594 47.1195C80.0594 47.6195 75.5594 52.6195 75.0594 53.1195C74.5594 53.6195 72.689 49.765 70.8094 46.9647M68.0594 41.6195L70.8094 46.9647M65.0594 43.1195C65.0594 45.1195 65.0594 57.1195 65.0594 57.6195C65.0594 58.1195 69.5594 59.1195 69.5594 59.6195C69.5594 60.1195 66.5594 64.1195 66.5594 64.6195C66.5594 65.1195 77 83.0001 77.5 83.0001C78 83.0001 81 81.0001 81.5 81.0001C82 81.0001 70.8094 46.9647 70.8094 46.9647" stroke="#24333D"/>
<path d="M71.0591 38.6195C71.0591 38.6195 72.0591 37.6195 72.0591 37.1195C72.0591 36.6195 72.0591 27.6195 72.0591 27.6195" stroke="#24333D"/>
<path d="M87.0591 53.6195C87.5591 54.1195 80.5591 47.6195 80.5591 47.1195C80.5591 46.6195 84.0591 41.6195 84.5591 41.6195C85.0591 41.6195 87.0591 43.1195 87.0591 43.1195M87.0591 43.1195V79.1195C87.0591 79.1195 88.5591 78.6195 89.0591 78.1195C89.5591 77.6195 93.5591 64.6195 94.0591 63.6195C94.5591 62.6195 90.0591 60.6195 90.0591 60.1195C90.0591 59.6195 93.5591 56.6195 93.5591 56.1195C93.5591 55.6195 87.0591 43.1195 87.0591 43.1195ZM87.0591 43.1195C105.559 49.1195 107.059 63.6195 107.059 63.6195" stroke="#24333D" stroke-linecap="round"/>
<path d="M107.5 66.0001C106.5 66.0001 93 105.5 93.5 105.5C94 105.5 120.5 106 121 105.5C121.5 105 135.5 66.0001 135.5 66.0001H125.5C125 66.0001 118.14 71.4561 118.5 66.0001H107.5Z" fill="#24333D"/>
<path d="M135.5 66.0001C135.5 66.0001 126 66.0001 125.5 66.0001C125 66.0001 118.14 71.4561 118.5 66.0001C118.5 66.0001 108.5 66.0001 107.5 66.0001C106.5 66.0001 93 105.5 93.5 105.5C94 105.5 120.5 106 121 105.5C121.5 105 135.5 66.0001 135.5 66.0001ZM135.5 66.0001C135.5 66.0001 136.5 63.5001 136.5 63.0001C136.5 62.5001 112.5 63.0001 112.5 63.0001C112.5 63.0001 106 63.0001 105.5 63.0001C105 63.0001 90.5 103 90.5 103" stroke="#24333D" stroke-linecap="round"/>
<path d="M128 87.0001C128.499 87.0001 130.001 83.5001 130.001 84.0001C130 84.5001 131.001 88.0001 131 88.5001C130.999 89.0001 127.999 98.0001 127.5 98.0001C127.001 98.0001 120 94.5001 120 94.0001C120 93.5148 120.158 91.9595 120.167 91.8681C119.993 91.7846 119.77 91.6654 119.501 91.5001C118.245 90.7303 119.668 89.1856 120.168 89.1856C120.667 89.1856 126.501 92.5001 126.501 92.5001C126.501 92.5001 120.499 89.0001 120 88.5001C119.501 88.0001 120.501 86.5001 121 86.5001C121.499 86.5001 127.501 89.5001 127.501 89.5001C127.501 89.5001 122.999 87.0001 122.5 86.5001C122.001 86.0001 122.501 85.0001 123 85.0001C123.499 85.0001 127.501 87.0001 128 87.0001Z" fill="white"/>
<path d="M125.001 94.5001C125.001 94.5001 121.001 92.0001 120.168 91.8639M120.168 91.8639C120.986 92.0399 120.756 92.2698 119.501 91.5001C118.245 90.7303 119.668 89.1856 120.168 89.1856C120.667 89.1856 126.501 92.5001 126.501 92.5001C126.501 92.5001 120.499 89.0001 120 88.5001C119.501 88.0001 120.501 86.5001 121 86.5001C121.499 86.5001 127.501 89.5001 127.501 89.5001C127.501 89.5001 122.999 87.0001 122.5 86.5001C122.001 86.0001 122.501 85.0001 123 85.0001C123.499 85.0001 127.501 87.0001 128 87.0001C128.499 87.0001 130.001 83.5001 130.001 84.0001C130 84.5001 131.001 88.0001 131 88.5001C130.999 89.0001 127.999 98.0001 127.5 98.0001C127.001 98.0001 120 94.5001 120 94.0001C120 93.5001 120.168 91.8639 120.168 91.8639Z" stroke="#3B4D59"/>
<rect x="79.5" y="105.5" width="2" height="2" fill="#24333D"/>
<rect x="79.5" y="114.5" width="2" height="2" fill="#24333D"/>
<rect x="79.5" y="96.5001" width="2" height="2" fill="#24333D"/>
<path d="M82.5 139.5C80.3665 141.326 79.6007 142.64 79 145.5C79 145.5 66 227.5 66 228C66 228.5 52.5 228 52.5 227C52.5 226 55.5 139.5 55.5 139.5M79 145.5C79 145.5 82.5 227.5 82.5 228C82.5 228.5 97 227.5 97 227C97 226.5 99 139.5 99 139.5" stroke="#24333D" stroke-linecap="round"/>
<path d="M515.183 154.191C528.036 160.086 542.174 143.608 543.491 123.575C543.494 123.535 543.462 123.5 543.421 123.5H543.216" stroke="#24333D" stroke-width="2"/>
<path d="M543.495 123.5C521.478 125.744 510.003 139.056 514.369 152.147M514.369 152.147C514.597 152.829 514.868 153.511 515.182 154.191L514.369 152.147Z" stroke="#24333D" stroke-width="2"/>
<path d="M498.452 175.438C481.722 175.438 475.307 164.477 474 147.108" stroke="#24333D" stroke-width="2"/>
<path d="M498.452 175.438C504.887 158.912 489.444 148.289 474 147.108" stroke="#24333D" stroke-width="2"/>
<path d="M516.468 182.52C526.764 191.963 546.068 183.701 551.216 170.717" stroke="#24333D" stroke-width="2"/>
<path d="M503.598 189.602C500.161 175.306 494.589 167.174 485.581 158.911M516.468 182.52C516.468 169.535 533.198 163.633 551.216 170.715" stroke="#24333D" stroke-width="2" stroke-linecap="round"/>
<path d="M501.314 204.899L501.265 205.898L503.262 205.997L503.312 204.998L502.313 204.949L501.314 204.899ZM530.015 137.222C530.422 136.848 530.45 136.216 530.076 135.809C529.703 135.402 529.07 135.374 528.663 135.748L529.339 136.485L530.015 137.222ZM502.313 204.949L503.312 204.998C504.92 172.736 514.816 151.163 530.015 137.222L529.339 136.485L528.663 135.748C512.976 150.136 502.941 172.266 501.314 204.899L502.313 204.949Z" fill="#24333D"/>
<path d="M522.826 206.129H479.23C479.187 206.129 479.154 206.168 479.161 206.21L484.024 236.319C484.181 237.288 485.017 238 485.999 238H517.271C518.283 238 519.135 237.245 519.257 236.241L522.895 206.207C522.9 206.166 522.868 206.129 522.826 206.129Z" stroke="#24333D" stroke-width="2"/>
<path d="M503.6 195.505C508.222 184.989 525.478 176.619 535.774 174.258" stroke="#24333D" stroke-width="2" stroke-linecap="round"/>
<path d="M301.508 112.5L306.5 117.199V131H292.405V112.5H301.508ZM306.5 117.199H301.508V112.5" stroke="#24333D" stroke-linecap="round"/>
<path d="M302.979 121.369H303.479V120.369H302.979V120.869V121.369ZM295.339 120.869V121.369H302.979V120.869V120.369H295.339V120.869Z" fill="#24333D"/>
<path d="M302.979 127.242H303.479V126.242H302.979V126.742V127.242ZM295.339 126.742V127.242H302.979V126.742V126.242H295.339V126.742Z" fill="#24333D"/>
<path d="M302.979 124.306H303.479V123.306H302.979V123.806V124.306ZM295.339 123.806V124.306H302.979V123.806V123.306H295.339V123.806Z" fill="#24333D"/>
<path d="M253 113.546V130H249.636V113.546H253Z" stroke="#24333D"/>
<path d="M247.181 119.364V130H243.818V119.364H247.181Z" stroke="#F5A623"/>
<path d="M241.363 123V130H238V123H241.363Z" stroke="#24333D"/>
<path d="M187.5 121.5L189.451 123.451C189.478 123.478 189.522 123.478 189.55 123.451L194 119M197.934 114.999C194.853 114.95 193.207 114.894 190.543 113.03C190.518 113.013 190.483 113.013 190.458 113.032C187.889 114.983 186.38 114.789 183.558 114.996C183.524 114.998 183.497 115.024 183.493 115.057C182.481 122.862 183.193 127.142 190.468 130.983C190.488 130.994 190.512 130.994 190.533 130.984C196.639 127.946 198.486 124.651 198.003 115.067C198.002 115.03 197.971 115 197.934 114.999Z" stroke="#24333D" stroke-linecap="round"/>
<path d="M176.5 34.0001H194.5" stroke="#F5A623" stroke-width="2"/>
<path d="M178.5 96.5001H319" stroke="#C9C9C9" stroke-width="0.8"/>
<path d="M356.5 139.5L368.5 128.5" stroke="#24333D" stroke-width="0.8"/>
<path d="M371 127L384 123" stroke="#24333D" stroke-width="0.8"/>
<path d="M386.5 121.5L400.5 106L413.5 93.5001" stroke="#24333D" stroke-width="0.8"/>
<path d="M371.5 127.5C371.5 128.605 370.605 129.5 369.5 129.5C368.395 129.5 367.5 128.605 367.5 127.5C367.5 126.396 368.395 125.5 369.5 125.5C370.605 125.5 371.5 126.396 371.5 127.5ZM368.27 127.5C368.27 128.18 368.821 128.73 369.5 128.73C370.179 128.73 370.73 128.18 370.73 127.5C370.73 126.821 370.179 126.27 369.5 126.27C368.821 126.27 368.27 126.821 368.27 127.5Z" fill="#24333D"/>
<path d="M387.5 122.5C387.5 123.605 386.605 124.5 385.5 124.5C384.395 124.5 383.5 123.605 383.5 122.5C383.5 121.396 384.395 120.5 385.5 120.5C386.605 120.5 387.5 121.396 387.5 122.5ZM384.27 122.5C384.27 123.18 384.821 123.73 385.5 123.73C386.179 123.73 386.73 123.18 386.73 122.5C386.73 121.821 386.179 121.27 385.5 121.27C384.821 121.27 384.27 121.821 384.27 122.5Z" fill="#24333D"/>
<path d="M387.5 122.5C387.5 123.605 386.605 124.5 385.5 124.5C384.395 124.5 383.5 123.605 383.5 122.5C383.5 121.396 384.395 120.5 385.5 120.5C386.605 120.5 387.5 121.396 387.5 122.5ZM384.27 122.5C384.27 123.18 384.821 123.73 385.5 123.73C386.179 123.73 386.73 123.18 386.73 122.5C386.73 121.821 386.179 121.27 385.5 121.27C384.821 121.27 384.27 121.821 384.27 122.5Z" fill="black" fill-opacity="0.2"/>
<circle cx="399.5" cy="106.5" r="2" fill="#24333D"/>
<circle cx="414.5" cy="92.5001" r="2" fill="#F5A623"/>
<path d="M421.5 146.5H349.571C349.532 146.5 349.5 146.468 349.501 146.43L350 79.5001" stroke="#C9C9C9" stroke-width="0.8"/>
<path d="M181.557 73.6819V79.5001H180.852V74.3069H177.92V79.5001H177.216V73.6819H181.557ZM182.887 81.1365V75.1365H183.535V75.8296H183.614C183.664 75.7539 183.732 75.6573 183.819 75.5399C183.908 75.4205 184.035 75.3145 184.2 75.2217C184.366 75.127 184.592 75.0796 184.876 75.0796C185.243 75.0796 185.567 75.1715 185.847 75.3552C186.128 75.5389 186.346 75.7993 186.504 76.1365C186.661 76.4736 186.739 76.8713 186.739 77.3296C186.739 77.7918 186.661 78.1923 186.504 78.5313C186.346 78.8685 186.129 79.1298 185.85 79.3154C185.572 79.4991 185.251 79.591 184.887 79.591C184.607 79.591 184.382 79.5446 184.214 79.4518C184.045 79.3571 183.915 79.2501 183.825 79.1308C183.734 79.0096 183.664 78.9092 183.614 78.8296H183.558V81.1365H182.887ZM183.546 77.3183C183.546 77.6478 183.594 77.9385 183.691 78.1904C183.788 78.4404 183.929 78.6365 184.114 78.7785C184.3 78.9187 184.527 78.9887 184.796 78.9887C185.076 78.9887 185.31 78.9149 185.498 78.7671C185.687 78.6175 185.829 78.4168 185.924 78.1649C186.021 77.9111 186.069 77.6289 186.069 77.3183C186.069 77.0115 186.022 76.7349 185.927 76.4887C185.834 76.2406 185.693 76.0446 185.504 75.9007C185.316 75.7548 185.08 75.6819 184.796 75.6819C184.523 75.6819 184.294 75.751 184.109 75.8893C183.923 76.0257 183.783 76.2169 183.688 76.4632C183.594 76.7075 183.546 76.9925 183.546 77.3183ZM189.535 79.591C189.141 79.591 188.795 79.4973 188.498 79.3098C188.202 79.1223 187.971 78.8599 187.805 78.5228C187.64 78.1857 187.558 77.7918 187.558 77.341C187.558 76.8865 187.64 76.4897 187.805 76.1507C187.971 75.8116 188.202 75.5484 188.498 75.3609C188.795 75.1734 189.141 75.0796 189.535 75.0796C189.929 75.0796 190.273 75.1734 190.569 75.3609C190.866 75.5484 191.097 75.8116 191.262 76.1507C191.429 76.4897 191.512 76.8865 191.512 77.341C191.512 77.7918 191.429 78.1857 191.262 78.5228C191.097 78.8599 190.866 79.1223 190.569 79.3098C190.273 79.4973 189.929 79.591 189.535 79.591ZM189.535 78.9887C189.834 78.9887 190.08 78.912 190.273 78.7586C190.467 78.6052 190.61 78.4035 190.702 78.1535C190.795 77.9035 190.842 77.6327 190.842 77.341C190.842 77.0493 190.795 76.7776 190.702 76.5257C190.61 76.2738 190.467 76.0702 190.273 75.9149C190.08 75.7596 189.834 75.6819 189.535 75.6819C189.236 75.6819 188.989 75.7596 188.796 75.9149C188.603 76.0702 188.46 76.2738 188.367 76.5257C188.274 76.7776 188.228 77.0493 188.228 77.341C188.228 77.6327 188.274 77.9035 188.367 78.1535C188.46 78.4035 188.603 78.6052 188.796 78.7586C188.989 78.912 189.236 78.9887 189.535 78.9887ZM192.536 79.5001V75.1365H194.32C194.789 75.1365 195.162 75.2425 195.439 75.4546C195.715 75.6668 195.854 75.9471 195.854 76.2955C195.854 76.5607 195.775 76.7662 195.618 76.912C195.461 77.056 195.259 77.1535 195.013 77.2046C195.174 77.2274 195.33 77.2842 195.482 77.3751C195.635 77.466 195.762 77.591 195.862 77.7501C195.963 77.9073 196.013 78.1005 196.013 78.3296C196.013 78.5531 195.956 78.7529 195.842 78.9291C195.729 79.1052 195.566 79.2444 195.354 79.3467C195.142 79.449 194.888 79.5001 194.592 79.5001H192.536ZM193.172 78.8865H194.592C194.823 78.8865 195.004 78.8315 195.135 78.7217C195.266 78.6118 195.331 78.4622 195.331 78.2728C195.331 78.0474 195.266 77.8704 195.135 77.7416C195.004 77.6109 194.823 77.5455 194.592 77.5455H193.172V78.8865ZM193.172 76.966H194.32C194.5 76.966 194.654 76.9414 194.783 76.8921C194.911 76.841 195.01 76.769 195.078 76.6762C195.148 76.5815 195.183 76.4698 195.183 76.341C195.183 76.1573 195.107 76.0133 194.953 75.9092C194.8 75.8031 194.589 75.7501 194.32 75.7501H193.172V76.966ZM198.857 79.591C198.437 79.591 198.074 79.4982 197.769 79.3126C197.466 79.1251 197.232 78.8637 197.067 78.5285C196.905 78.1914 196.823 77.7993 196.823 77.3524C196.823 76.9054 196.905 76.5115 197.067 76.1705C197.232 75.8277 197.461 75.5607 197.755 75.3694C198.05 75.1762 198.395 75.0796 198.789 75.0796C199.016 75.0796 199.241 75.1175 199.462 75.1933C199.684 75.269 199.886 75.3921 200.067 75.5626C200.249 75.7312 200.394 75.9546 200.502 76.233C200.61 76.5115 200.664 76.8543 200.664 77.2615V77.5455H197.3V76.966H199.982C199.982 76.7198 199.933 76.5001 199.835 76.3069C199.738 76.1137 199.6 75.9613 199.42 75.8495C199.242 75.7378 199.031 75.6819 198.789 75.6819C198.522 75.6819 198.291 75.7482 198.096 75.8808C197.903 76.0115 197.754 76.1819 197.65 76.3921C197.546 76.6024 197.494 76.8277 197.494 77.0683V77.4546C197.494 77.7842 197.55 78.0635 197.664 78.2927C197.78 78.52 197.94 78.6933 198.144 78.8126C198.349 78.93 198.586 78.9887 198.857 78.9887C199.033 78.9887 199.192 78.9641 199.335 78.9149C199.478 78.8637 199.603 78.788 199.707 78.6876C199.811 78.5853 199.891 78.4584 199.948 78.3069L200.596 78.4887C200.528 78.7084 200.413 78.9016 200.252 79.0683C200.091 79.233 199.892 79.3618 199.656 79.4546C199.419 79.5455 199.153 79.591 198.857 79.591ZM201.684 81.1365V75.1365H202.332V75.8296H202.411C202.46 75.7539 202.529 75.6573 202.616 75.5399C202.705 75.4205 202.832 75.3145 202.996 75.2217C203.163 75.127 203.388 75.0796 203.673 75.0796C204.04 75.0796 204.364 75.1715 204.644 75.3552C204.924 75.5389 205.143 75.7993 205.3 76.1365C205.458 76.4736 205.536 76.8713 205.536 77.3296C205.536 77.7918 205.458 78.1923 205.3 78.5313C205.143 78.8685 204.925 79.1298 204.647 79.3154C204.369 79.4991 204.048 79.591 203.684 79.591C203.404 79.591 203.179 79.5446 203.011 79.4518C202.842 79.3571 202.712 79.2501 202.621 79.1308C202.531 79.0096 202.46 78.9092 202.411 78.8296H202.354V81.1365H201.684ZM202.343 77.3183C202.343 77.6478 202.391 77.9385 202.488 78.1904C202.585 78.4404 202.726 78.6365 202.911 78.7785C203.097 78.9187 203.324 78.9887 203.593 78.9887C203.873 78.9887 204.107 78.9149 204.295 78.7671C204.484 78.6175 204.626 78.4168 204.721 78.1649C204.817 77.9111 204.866 77.6289 204.866 77.3183C204.866 77.0115 204.818 76.7349 204.724 76.4887C204.631 76.2406 204.49 76.0446 204.3 75.9007C204.113 75.7548 203.877 75.6819 203.593 75.6819C203.32 75.6819 203.091 75.751 202.906 75.8893C202.72 76.0257 202.58 76.2169 202.485 76.4632C202.39 76.7075 202.343 76.9925 202.343 77.3183ZM206.559 79.5001V75.1365H207.229V77.0342H207.673L209.241 75.1365H210.104L208.343 77.2387L210.127 79.5001H209.263L207.832 77.6592H207.229V79.5001H206.559ZM212.14 79.6024C211.863 79.6024 211.612 79.5503 211.387 79.4461C211.162 79.3401 210.983 79.1876 210.85 78.9887C210.718 78.788 210.651 78.5455 210.651 78.2615C210.651 78.0115 210.701 77.8088 210.799 77.6535C210.897 77.4963 211.029 77.3732 211.194 77.2842C211.359 77.1952 211.54 77.1289 211.739 77.0853C211.94 77.0399 212.142 77.0039 212.344 76.9774C212.61 76.9433 212.825 76.9177 212.989 76.9007C213.156 76.8817 213.277 76.8505 213.353 76.8069C213.431 76.7633 213.469 76.6876 213.469 76.5796V76.5569C213.469 76.2766 213.393 76.0588 213.239 75.9035C213.088 75.7482 212.858 75.6705 212.549 75.6705C212.229 75.6705 211.978 75.7406 211.796 75.8808C211.614 76.0209 211.487 76.1705 211.413 76.3296L210.776 76.1024C210.89 75.8372 211.041 75.6308 211.231 75.483C211.422 75.3334 211.63 75.2293 211.856 75.1705C212.083 75.1099 212.307 75.0796 212.526 75.0796C212.666 75.0796 212.827 75.0967 213.009 75.1308C213.193 75.163 213.37 75.2302 213.54 75.3325C213.713 75.4348 213.856 75.5891 213.969 75.7955C214.083 76.002 214.14 76.2785 214.14 76.6251V79.5001H213.469V78.9092H213.435C213.39 79.0039 213.314 79.1052 213.208 79.2132C213.102 79.3211 212.961 79.413 212.785 79.4887C212.609 79.5645 212.394 79.6024 212.14 79.6024ZM212.242 79.0001C212.507 79.0001 212.731 78.948 212.913 78.8438C213.096 78.7397 213.235 78.6052 213.327 78.4404C213.422 78.2757 213.469 78.1024 213.469 77.9205V77.3069C213.441 77.341 213.379 77.3723 213.282 77.4007C213.187 77.4272 213.077 77.4508 212.952 77.4717C212.829 77.4906 212.709 77.5077 212.592 77.5228C212.476 77.5361 212.382 77.5474 212.31 77.5569C212.136 77.5796 211.973 77.6166 211.822 77.6677C211.672 77.7169 211.551 77.7918 211.458 77.8921C211.367 77.9906 211.322 78.1251 211.322 78.2955C211.322 78.5285 211.408 78.7046 211.58 78.824C211.754 78.9414 211.975 79.0001 212.242 79.0001ZM215.852 79.5455C215.712 79.5455 215.592 79.4954 215.491 79.395C215.391 79.2946 215.341 79.1743 215.341 79.0342C215.341 78.894 215.391 78.7738 215.491 78.6734C215.592 78.573 215.712 78.5228 215.852 78.5228C215.992 78.5228 216.113 78.573 216.213 78.6734C216.313 78.7738 216.364 78.894 216.364 79.0342C216.364 79.127 216.34 79.2122 216.293 79.2899C216.247 79.3675 216.186 79.43 216.108 79.4774C216.032 79.5228 215.947 79.5455 215.852 79.5455ZM224.817 76.591C224.817 77.2046 224.706 77.7349 224.484 78.1819C224.263 78.6289 223.959 78.9736 223.572 79.216C223.186 79.4584 222.745 79.5796 222.249 79.5796C221.752 79.5796 221.311 79.4584 220.925 79.216C220.538 78.9736 220.234 78.6289 220.013 78.1819C219.791 77.7349 219.68 77.2046 219.68 76.591C219.68 75.9774 219.791 75.4471 220.013 75.0001C220.234 74.5531 220.538 74.2084 220.925 73.966C221.311 73.7236 221.752 73.6024 222.249 73.6024C222.745 73.6024 223.186 73.7236 223.572 73.966C223.959 74.2084 224.263 74.5531 224.484 75.0001C224.706 75.4471 224.817 75.9774 224.817 76.591ZM224.135 76.591C224.135 76.0872 224.051 75.662 223.882 75.3154C223.715 74.9688 223.489 74.7065 223.203 74.5285C222.919 74.3505 222.601 74.2615 222.249 74.2615C221.896 74.2615 221.577 74.3505 221.291 74.5285C221.007 74.7065 220.781 74.9688 220.612 75.3154C220.446 75.662 220.362 76.0872 220.362 76.591C220.362 77.0948 220.446 77.52 220.612 77.8666C220.781 78.2132 221.007 78.4755 221.291 78.6535C221.577 78.8315 221.896 78.9205 222.249 78.9205C222.601 78.9205 222.919 78.8315 223.203 78.6535C223.489 78.4755 223.715 78.2132 223.882 77.8666C224.051 77.52 224.135 77.0948 224.135 76.591ZM229.149 73.5001L229.49 73.9092C229.357 74.038 229.204 74.1279 229.03 74.1791C228.856 74.2302 228.659 74.2615 228.439 74.2728C228.219 74.2842 227.975 74.2955 227.706 74.3069C227.403 74.3183 227.152 74.3921 226.953 74.5285C226.754 74.6649 226.601 74.8618 226.493 75.1194C226.385 75.377 226.316 75.6933 226.286 76.0683H226.342C226.49 75.7955 226.695 75.5948 226.956 75.466C227.217 75.3372 227.498 75.2728 227.797 75.2728C228.138 75.2728 228.445 75.3524 228.717 75.5115C228.99 75.6705 229.206 75.9063 229.365 76.2188C229.524 76.5313 229.604 76.9168 229.604 77.3751C229.604 77.8315 229.522 78.2255 229.359 78.5569C229.198 78.8883 228.972 79.144 228.68 79.324C228.391 79.502 228.051 79.591 227.661 79.591C227.27 79.591 226.929 79.4991 226.635 79.3154C226.341 79.1298 226.113 78.8552 225.95 78.4916C225.787 78.126 225.706 77.6743 225.706 77.1365V76.6705C225.706 75.699 225.871 74.9622 226.2 74.4603C226.532 73.9584 227.03 73.699 227.695 73.6819C227.929 73.6743 228.139 73.6724 228.322 73.6762C228.506 73.68 228.666 73.6715 228.803 73.6507C228.939 73.6298 229.054 73.5796 229.149 73.5001ZM227.661 78.9887C227.924 78.9887 228.15 78.9224 228.339 78.7899C228.531 78.6573 228.678 78.4707 228.78 78.2302C228.882 77.9878 228.933 77.7027 228.933 77.3751C228.933 77.0569 228.881 76.7861 228.777 76.5626C228.675 76.3391 228.528 76.1687 228.337 76.0512C228.145 75.9338 227.916 75.8751 227.649 75.8751C227.454 75.8751 227.279 75.9082 227.124 75.9745C226.968 76.0408 226.836 76.1383 226.726 76.2671C226.616 76.3959 226.531 76.5531 226.47 76.7387C226.411 76.9243 226.38 77.1365 226.376 77.3751C226.376 77.8637 226.491 78.2548 226.72 78.5484C226.949 78.8419 227.263 78.9887 227.661 78.9887ZM231.163 75.1365V75.7615H229.947V75.1365H231.163ZM231.742 76.716H232.992C233.504 76.716 233.895 76.8457 234.165 77.1052C234.436 77.3647 234.572 77.6933 234.572 78.091C234.572 78.3524 234.511 78.5901 234.39 78.8041C234.269 79.0162 234.091 79.1857 233.856 79.3126C233.621 79.4376 233.333 79.5001 232.992 79.5001H231.163V75.1365H231.833V78.8751H232.992C233.257 78.8751 233.475 78.805 233.646 78.6649C233.816 78.5247 233.901 78.3448 233.901 78.1251C233.901 77.894 233.816 77.7056 233.646 77.5598C233.475 77.4139 233.257 77.341 232.992 77.341H231.742V76.716ZM237.428 79.591C237.007 79.591 236.644 79.4982 236.339 79.3126C236.036 79.1251 235.803 78.8637 235.638 78.5285C235.475 78.1914 235.393 77.7993 235.393 77.3524C235.393 76.9054 235.475 76.5115 235.638 76.1705C235.803 75.8277 236.032 75.5607 236.325 75.3694C236.621 75.1762 236.965 75.0796 237.359 75.0796C237.587 75.0796 237.811 75.1175 238.033 75.1933C238.254 75.269 238.456 75.3921 238.638 75.5626C238.82 75.7312 238.964 75.9546 239.072 76.233C239.18 76.5115 239.234 76.8543 239.234 77.2615V77.5455H235.871V76.966H238.553C238.553 76.7198 238.503 76.5001 238.405 76.3069C238.308 76.1137 238.17 75.9613 237.99 75.8495C237.812 75.7378 237.602 75.6819 237.359 75.6819C237.092 75.6819 236.861 75.7482 236.666 75.8808C236.473 76.0115 236.324 76.1819 236.22 76.3921C236.116 76.6024 236.064 76.8277 236.064 77.0683V77.4546C236.064 77.7842 236.121 78.0635 236.234 78.2927C236.35 78.52 236.51 78.6933 236.714 78.8126C236.919 78.93 237.157 78.9887 237.428 78.9887C237.604 78.9887 237.763 78.9641 237.905 78.9149C238.049 78.8637 238.173 78.788 238.277 78.6876C238.381 78.5853 238.462 78.4584 238.518 78.3069L239.166 78.4887C239.098 78.7084 238.983 78.9016 238.822 79.0683C238.661 79.233 238.463 79.3618 238.226 79.4546C237.989 79.5455 237.723 79.591 237.428 79.591ZM240.254 79.5001V75.1365H240.925V77.0342H241.368L242.936 75.1365H243.8L242.038 77.2387L243.822 79.5001H242.959L241.527 77.6592H240.925V79.5001H240.254ZM244.301 75.7615V75.1365H247.847V75.7615H246.415V79.5001H245.744V75.7615H244.301ZM249.495 78.5115L251.597 75.1365H252.37V79.5001H251.7V76.1251L249.609 79.5001H248.825V75.1365H249.495V78.5115ZM253.598 79.5001V75.1365H255.382C255.852 75.1365 256.225 75.2425 256.501 75.4546C256.778 75.6668 256.916 75.9471 256.916 76.2955C256.916 76.5607 256.838 76.7662 256.68 76.912C256.523 77.056 256.321 77.1535 256.075 77.2046C256.236 77.2274 256.393 77.2842 256.544 77.3751C256.697 77.466 256.824 77.591 256.925 77.7501C257.025 77.9073 257.075 78.1005 257.075 78.3296C257.075 78.5531 257.018 78.7529 256.905 78.9291C256.791 79.1052 256.628 79.2444 256.416 79.3467C256.204 79.449 255.95 79.5001 255.655 79.5001H253.598ZM254.234 78.8865H255.655C255.886 78.8865 256.067 78.8315 256.197 78.7217C256.328 78.6118 256.393 78.4622 256.393 78.2728C256.393 78.0474 256.328 77.8704 256.197 77.7416C256.067 77.6109 255.886 77.5455 255.655 77.5455H254.234V78.8865ZM254.234 76.966H255.382C255.562 76.966 255.716 76.9414 255.845 76.8921C255.974 76.841 256.072 76.769 256.141 76.6762C256.211 76.5815 256.246 76.4698 256.246 76.341C256.246 76.1573 256.169 76.0133 256.016 75.9092C255.862 75.8031 255.651 75.7501 255.382 75.7501H254.234V76.966ZM261.011 77.0115V77.6365H258.602V77.0115H261.011ZM258.761 75.1365V79.5001H258.09V75.1365H258.761ZM261.522 75.1365V79.5001H260.852V75.1365H261.522ZM264.519 79.591C264.125 79.591 263.78 79.4973 263.482 79.3098C263.187 79.1223 262.956 78.8599 262.789 78.5228C262.624 78.1857 262.542 77.7918 262.542 77.341C262.542 76.8865 262.624 76.4897 262.789 76.1507C262.956 75.8116 263.187 75.5484 263.482 75.3609C263.78 75.1734 264.125 75.0796 264.519 75.0796C264.913 75.0796 265.258 75.1734 265.553 75.3609C265.851 75.5484 266.082 75.8116 266.246 76.1507C266.413 76.4897 266.496 76.8865 266.496 77.341C266.496 77.7918 266.413 78.1857 266.246 78.5228C266.082 78.8599 265.851 79.1223 265.553 79.3098C265.258 79.4973 264.913 79.591 264.519 79.591ZM264.519 78.9887C264.818 78.9887 265.065 78.912 265.258 78.7586C265.451 78.6052 265.594 78.4035 265.687 78.1535C265.78 77.9035 265.826 77.6327 265.826 77.341C265.826 77.0493 265.78 76.7776 265.687 76.5257C265.594 76.2738 265.451 76.0702 265.258 75.9149C265.065 75.7596 264.818 75.6819 264.519 75.6819C264.22 75.6819 263.974 75.7596 263.781 75.9149C263.587 76.0702 263.444 76.2738 263.352 76.5257C263.259 76.7776 263.212 77.0493 263.212 77.341C263.212 77.6327 263.259 77.9035 263.352 78.1535C263.444 78.4035 263.587 78.6052 263.781 78.7586C263.974 78.912 264.22 78.9887 264.519 78.9887ZM269.293 79.591C268.884 79.591 268.531 79.4944 268.236 79.3012C267.94 79.108 267.713 78.8419 267.554 78.5029C267.395 78.1639 267.315 77.7766 267.315 77.341C267.315 76.8978 267.397 76.5067 267.56 76.1677C267.724 75.8268 267.954 75.5607 268.247 75.3694C268.543 75.1762 268.887 75.0796 269.281 75.0796C269.588 75.0796 269.865 75.1365 270.111 75.2501C270.357 75.3637 270.559 75.5228 270.716 75.7274C270.873 75.9319 270.971 76.1705 271.009 76.4433H270.338C270.287 76.2444 270.173 76.0683 269.997 75.9149C269.823 75.7596 269.588 75.6819 269.293 75.6819C269.031 75.6819 268.802 75.7501 268.605 75.8865C268.41 76.0209 268.258 76.2113 268.148 76.4575C268.04 76.7018 267.986 76.9887 267.986 77.3183C267.986 77.6554 268.039 77.949 268.145 78.199C268.253 78.449 268.404 78.6431 268.599 78.7813C268.796 78.9196 269.027 78.9887 269.293 78.9887C269.467 78.9887 269.625 78.9584 269.767 78.8978C269.909 78.8372 270.029 78.7501 270.128 78.6365C270.226 78.5228 270.296 78.3865 270.338 78.2274H271.009C270.971 78.4849 270.877 78.7169 270.727 78.9234C270.58 79.1279 270.384 79.2908 270.139 79.412C269.897 79.5313 269.615 79.591 269.293 79.591ZM271.645 75.7615V75.1365H275.19V75.7615H273.759V79.5001H273.088V75.7615H271.645ZM276.748 76.716H277.998C278.509 76.716 278.9 76.8457 279.171 77.1052C279.442 77.3647 279.577 77.6933 279.577 78.091C279.577 78.3524 279.517 78.5901 279.396 78.8041C279.274 79.0162 279.096 79.1857 278.862 79.3126C278.627 79.4376 278.339 79.5001 277.998 79.5001H276.168V75.1365H276.839V78.8751H277.998C278.263 78.8751 278.481 78.805 278.651 78.6649C278.822 78.5247 278.907 78.3448 278.907 78.1251C278.907 77.894 278.822 77.7056 278.651 77.5598C278.481 77.4139 278.263 77.341 277.998 77.341H276.748V76.716ZM281.087 79.5455C280.946 79.5455 280.826 79.4954 280.726 79.395C280.625 79.2946 280.575 79.1743 280.575 79.0342C280.575 78.894 280.625 78.7738 280.726 78.6734C280.826 78.573 280.946 78.5228 281.087 78.5228C281.227 78.5228 281.347 78.573 281.447 78.6734C281.548 78.7738 281.598 78.894 281.598 79.0342C281.598 79.127 281.574 79.2122 281.527 79.2899C281.482 79.3675 281.42 79.43 281.342 79.4774C281.267 79.5228 281.181 79.5455 281.087 79.5455ZM284.642 80.9092V78.8751H285.017C285.146 78.7577 285.267 78.5919 285.381 78.3779C285.496 78.162 285.594 77.8741 285.673 77.5143C285.755 77.1526 285.809 76.6933 285.835 76.1365L285.96 73.6819H289.415V78.8751H290.085V80.8978H289.415V79.5001H285.312V80.9092H284.642ZM285.858 78.8751H288.744V74.3069H286.597L286.506 76.1365C286.483 76.5607 286.443 76.9452 286.386 77.2899C286.33 77.6327 286.257 77.9366 286.168 78.2018C286.079 78.4651 285.975 78.6895 285.858 78.8751ZM292.832 79.591C292.438 79.591 292.092 79.4973 291.795 79.3098C291.499 79.1223 291.268 78.8599 291.102 78.5228C290.937 78.1857 290.854 77.7918 290.854 77.341C290.854 76.8865 290.937 76.4897 291.102 76.1507C291.268 75.8116 291.499 75.5484 291.795 75.3609C292.092 75.1734 292.438 75.0796 292.832 75.0796C293.226 75.0796 293.57 75.1734 293.866 75.3609C294.163 75.5484 294.394 75.8116 294.559 76.1507C294.726 76.4897 294.809 76.8865 294.809 77.341C294.809 77.7918 294.726 78.1857 294.559 78.5228C294.394 78.8599 294.163 79.1223 293.866 79.3098C293.57 79.4973 293.226 79.591 292.832 79.591ZM292.832 78.9887C293.131 78.9887 293.377 78.912 293.57 78.7586C293.763 78.6052 293.906 78.4035 293.999 78.1535C294.092 77.9035 294.138 77.6327 294.138 77.341C294.138 77.0493 294.092 76.7776 293.999 76.5257C293.906 76.2738 293.763 76.0702 293.57 75.9149C293.377 75.7596 293.131 75.6819 292.832 75.6819C292.532 75.6819 292.286 75.7596 292.093 75.9149C291.9 76.0702 291.757 76.2738 291.664 76.5257C291.571 76.7776 291.525 77.0493 291.525 77.341C291.525 77.6327 291.571 77.9035 291.664 78.1535C291.757 78.4035 291.9 78.6052 292.093 78.7586C292.286 78.912 292.532 78.9887 292.832 78.9887ZM295.832 79.5001V75.1365H297.616C298.086 75.1365 298.459 75.2425 298.736 75.4546C299.012 75.6668 299.151 75.9471 299.151 76.2955C299.151 76.5607 299.072 76.7662 298.915 76.912C298.758 77.056 298.556 77.1535 298.31 77.2046C298.471 77.2274 298.627 77.2842 298.778 77.3751C298.932 77.466 299.059 77.591 299.159 77.7501C299.259 77.9073 299.31 78.1005 299.31 78.3296C299.31 78.5531 299.253 78.7529 299.139 78.9291C299.026 79.1052 298.863 79.2444 298.651 79.3467C298.438 79.449 298.185 79.5001 297.889 79.5001H295.832ZM296.469 78.8865H297.889C298.12 78.8865 298.301 78.8315 298.432 78.7217C298.563 78.6118 298.628 78.4622 298.628 78.2728C298.628 78.0474 298.563 77.8704 298.432 77.7416C298.301 77.6109 298.12 77.5455 297.889 77.5455H296.469V78.8865ZM296.469 76.966H297.616C297.796 76.966 297.951 76.9414 298.08 76.8921C298.208 76.841 298.307 76.769 298.375 76.6762C298.445 76.5815 298.48 76.4698 298.48 76.341C298.48 76.1573 298.403 76.0133 298.25 75.9092C298.097 75.8031 297.885 75.7501 297.616 75.7501H296.469V76.966ZM302.154 79.591C301.734 79.591 301.371 79.4982 301.066 79.3126C300.763 79.1251 300.529 78.8637 300.364 78.5285C300.201 78.1914 300.12 77.7993 300.12 77.3524C300.12 76.9054 300.201 76.5115 300.364 76.1705C300.529 75.8277 300.758 75.5607 301.052 75.3694C301.347 75.1762 301.692 75.0796 302.086 75.0796C302.313 75.0796 302.538 75.1175 302.759 75.1933C302.981 75.269 303.183 75.3921 303.364 75.5626C303.546 75.7312 303.691 75.9546 303.799 76.233C303.907 76.5115 303.961 76.8543 303.961 77.2615V77.5455H300.597V76.966H303.279C303.279 76.7198 303.23 76.5001 303.131 76.3069C303.035 76.1137 302.897 75.9613 302.717 75.8495C302.539 75.7378 302.328 75.6819 302.086 75.6819C301.819 75.6819 301.588 75.7482 301.393 75.8808C301.2 76.0115 301.051 76.1819 300.947 76.3921C300.843 76.6024 300.79 76.8277 300.79 77.0683V77.4546C300.79 77.7842 300.847 78.0635 300.961 78.2927C301.076 78.52 301.237 78.6933 301.441 78.8126C301.646 78.93 301.883 78.9887 302.154 78.9887C302.33 78.9887 302.489 78.9641 302.631 78.9149C302.775 78.8637 302.899 78.788 303.004 78.6876C303.108 78.5853 303.188 78.4584 303.245 78.3069L303.893 78.4887C303.825 78.7084 303.71 78.9016 303.549 79.0683C303.388 79.233 303.189 79.3618 302.952 79.4546C302.716 79.5455 302.45 79.591 302.154 79.591ZM304.981 81.1365V75.1365H305.629V75.8296H305.708C305.757 75.7539 305.826 75.6573 305.913 75.5399C306.002 75.4205 306.129 75.3145 306.293 75.2217C306.46 75.127 306.685 75.0796 306.969 75.0796C307.337 75.0796 307.661 75.1715 307.941 75.3552C308.221 75.5389 308.44 75.7993 308.597 76.1365C308.754 76.4736 308.833 76.8713 308.833 77.3296C308.833 77.7918 308.754 78.1923 308.597 78.5313C308.44 78.8685 308.222 79.1298 307.944 79.3154C307.665 79.4991 307.344 79.591 306.981 79.591C306.701 79.591 306.476 79.5446 306.308 79.4518C306.139 79.3571 306.009 79.2501 305.918 79.1308C305.827 79.0096 305.757 78.9092 305.708 78.8296H305.651V81.1365H304.981ZM305.64 77.3183C305.64 77.6478 305.688 77.9385 305.785 78.1904C305.881 78.4404 306.022 78.6365 306.208 78.7785C306.394 78.9187 306.621 78.9887 306.89 78.9887C307.17 78.9887 307.404 78.9149 307.592 78.7671C307.781 78.6175 307.923 78.4168 308.018 78.1649C308.114 77.9111 308.163 77.6289 308.163 77.3183C308.163 77.0115 308.115 76.7349 308.021 76.4887C307.928 76.2406 307.787 76.0446 307.597 75.9007C307.41 75.7548 307.174 75.6819 306.89 75.6819C306.617 75.6819 306.388 75.751 306.202 75.8893C306.017 76.0257 305.877 76.2169 305.782 76.4632C305.687 76.7075 305.64 76.9925 305.64 77.3183ZM310.526 78.5115L312.629 75.1365H313.401V79.5001H312.731V76.1251L310.64 79.5001H309.856V75.1365H310.526V78.5115ZM316.459 79.591C316.038 79.591 315.676 79.4982 315.371 79.3126C315.068 79.1251 314.834 78.8637 314.669 78.5285C314.506 78.1914 314.425 77.7993 314.425 77.3524C314.425 76.9054 314.506 76.5115 314.669 76.1705C314.834 75.8277 315.063 75.5607 315.357 75.3694C315.652 75.1762 315.997 75.0796 316.391 75.0796C316.618 75.0796 316.842 75.1175 317.064 75.1933C317.286 75.269 317.487 75.3921 317.669 75.5626C317.851 75.7312 317.996 75.9546 318.104 76.233C318.212 76.5115 318.266 76.8543 318.266 77.2615V77.5455H314.902V76.966H317.584C317.584 76.7198 317.535 76.5001 317.436 76.3069C317.339 76.1137 317.201 75.9613 317.021 75.8495C316.843 75.7378 316.633 75.6819 316.391 75.6819C316.124 75.6819 315.893 75.7482 315.697 75.8808C315.504 76.0115 315.356 76.1819 315.251 76.3921C315.147 76.6024 315.095 76.8277 315.095 77.0683V77.4546C315.095 77.7842 315.152 78.0635 315.266 78.2927C315.381 78.52 315.541 78.6933 315.746 78.8126C315.95 78.93 316.188 78.9887 316.459 78.9887C316.635 78.9887 316.794 78.9641 316.936 78.9149C317.08 78.8637 317.204 78.788 317.308 78.6876C317.412 78.5853 317.493 78.4584 317.55 78.3069L318.197 78.4887C318.129 78.7084 318.015 78.9016 317.854 79.0683C317.693 79.233 317.494 79.3618 317.257 79.4546C317.02 79.5455 316.754 79.591 316.459 79.591ZM319.774 79.5455C319.634 79.5455 319.514 79.4954 319.413 79.395C319.313 79.2946 319.263 79.1743 319.263 79.0342C319.263 78.894 319.313 78.7738 319.413 78.6734C319.514 78.573 319.634 78.5228 319.774 78.5228C319.914 78.5228 320.035 78.573 320.135 78.6734C320.235 78.7738 320.286 78.894 320.286 79.0342C320.286 79.127 320.262 79.2122 320.214 79.2899C320.169 79.3675 320.107 79.43 320.03 79.4774C319.954 79.5228 319.869 79.5455 319.774 79.5455Z" fill="#3B4D59"/>
<path d="M173.9 145.5V141.864H174.448V143.444H176.261V141.864H176.811V145.5H176.261V143.915H174.448V145.5H173.9ZM178.362 145.56C178.189 145.56 178.032 145.529 177.893 145.465C177.753 145.399 177.642 145.305 177.561 145.182C177.48 145.059 177.44 144.908 177.44 144.729C177.44 144.576 177.47 144.449 177.529 144.35C177.588 144.25 177.668 144.171 177.768 144.113C177.869 144.055 177.982 144.012 178.106 143.982C178.23 143.952 178.357 143.93 178.486 143.915C178.649 143.896 178.782 143.88 178.884 143.868C178.985 143.855 179.059 143.835 179.105 143.806C179.152 143.778 179.175 143.732 179.175 143.668V143.655C179.175 143.5 179.131 143.38 179.043 143.295C178.957 143.21 178.828 143.167 178.656 143.167C178.478 143.167 178.337 143.207 178.234 143.286C178.132 143.364 178.061 143.451 178.022 143.547L177.523 143.433C177.583 143.268 177.669 143.134 177.783 143.032C177.897 142.929 178.029 142.854 178.179 142.808C178.328 142.761 178.485 142.737 178.649 142.737C178.758 142.737 178.873 142.75 178.995 142.776C179.118 142.801 179.233 142.847 179.34 142.915C179.448 142.982 179.536 143.079 179.604 143.204C179.673 143.329 179.707 143.49 179.707 143.689V145.5H179.189V145.127H179.168C179.133 145.196 179.082 145.263 179.013 145.33C178.944 145.396 178.856 145.451 178.749 145.495C178.641 145.539 178.512 145.56 178.362 145.56ZM178.477 145.134C178.624 145.134 178.749 145.105 178.853 145.047C178.959 144.989 179.039 144.914 179.093 144.82C179.149 144.725 179.176 144.624 179.176 144.516V144.165C179.158 144.184 179.121 144.202 179.066 144.218C179.013 144.234 178.952 144.247 178.884 144.259C178.815 144.27 178.748 144.28 178.683 144.289C178.618 144.297 178.563 144.305 178.52 144.31C178.417 144.323 178.322 144.345 178.237 144.376C178.153 144.407 178.086 144.451 178.035 144.509C177.985 144.566 177.96 144.642 177.96 144.737C177.96 144.868 178.009 144.967 178.106 145.035C178.203 145.101 178.327 145.134 178.477 145.134ZM180.148 146.287V145.04H180.37C180.427 144.988 180.475 144.926 180.514 144.854C180.554 144.782 180.588 144.696 180.615 144.596C180.644 144.497 180.667 144.381 180.686 144.248C180.705 144.115 180.722 143.962 180.736 143.79L180.821 142.773H182.675V145.04H183.094V146.287H182.575V145.5H180.674V146.287H180.148ZM180.938 145.04H182.156V143.227H181.297L181.24 143.79C181.213 144.077 181.179 144.325 181.137 144.536C181.096 144.745 181.029 144.914 180.938 145.04ZM184.788 145.555C184.519 145.555 184.288 145.498 184.094 145.383C183.901 145.267 183.752 145.104 183.646 144.895C183.542 144.684 183.49 144.437 183.49 144.154C183.49 143.875 183.542 143.629 183.646 143.416C183.752 143.203 183.899 143.036 184.087 142.917C184.276 142.797 184.498 142.737 184.751 142.737C184.905 142.737 185.054 142.763 185.198 142.814C185.343 142.865 185.472 142.944 185.587 143.053C185.702 143.162 185.793 143.304 185.859 143.478C185.925 143.651 185.958 143.861 185.958 144.108V144.296H183.79V143.899H185.438C185.438 143.759 185.41 143.635 185.353 143.527C185.296 143.419 185.216 143.333 185.113 143.27C185.011 143.207 184.892 143.176 184.754 143.176C184.605 143.176 184.475 143.213 184.364 143.286C184.254 143.358 184.169 143.453 184.108 143.57C184.049 143.686 184.019 143.812 184.019 143.948V144.259C184.019 144.441 184.051 144.596 184.115 144.724C184.18 144.852 184.271 144.95 184.387 145.017C184.503 145.083 184.638 145.117 184.794 145.117C184.894 145.117 184.986 145.102 185.069 145.074C185.152 145.044 185.223 145.001 185.284 144.943C185.344 144.885 185.39 144.813 185.422 144.728L185.925 144.818C185.884 144.966 185.812 145.096 185.708 145.207C185.605 145.317 185.475 145.403 185.319 145.465C185.164 145.525 184.987 145.555 184.788 145.555ZM186.31 145.5L187.366 144.104L186.322 142.773H186.94L187.784 143.906H187.974V142.773H188.504V143.906H188.689L189.532 142.773H190.15L189.112 144.104L190.163 145.5H189.532L188.682 144.364H188.504V145.5H187.974V144.364H187.796L186.94 145.5H186.31ZM192.551 143.907V144.367H191.074V143.907H192.551ZM191.223 142.773V145.5H190.703V142.773H191.223ZM192.922 142.773V145.5H192.404V142.773H192.922ZM194.781 145.555C194.525 145.555 194.302 145.497 194.112 145.379C193.921 145.262 193.773 145.098 193.668 144.888C193.562 144.677 193.51 144.431 193.51 144.149C193.51 143.866 193.562 143.619 193.668 143.407C193.773 143.195 193.921 143.03 194.112 142.913C194.302 142.796 194.525 142.737 194.781 142.737C195.037 142.737 195.26 142.796 195.45 142.913C195.641 143.03 195.789 143.195 195.894 143.407C196 143.619 196.052 143.866 196.052 144.149C196.052 144.431 196 144.677 195.894 144.888C195.789 145.098 195.641 145.262 195.45 145.379C195.26 145.497 195.037 145.555 194.781 145.555ZM194.783 145.109C194.949 145.109 195.086 145.066 195.195 144.978C195.304 144.89 195.384 144.774 195.436 144.628C195.49 144.483 195.516 144.322 195.516 144.147C195.516 143.973 195.49 143.813 195.436 143.668C195.384 143.521 195.304 143.403 195.195 143.314C195.086 143.226 194.949 143.181 194.783 143.181C194.616 143.181 194.477 143.226 194.367 143.314C194.258 143.403 194.177 143.521 194.124 143.668C194.072 143.813 194.046 143.973 194.046 144.147C194.046 144.322 194.072 144.483 194.124 144.628C194.177 144.774 194.258 144.89 194.367 144.978C194.477 145.066 194.616 145.109 194.783 145.109ZM197.794 145.555C197.53 145.555 197.303 145.495 197.112 145.376C196.923 145.255 196.777 145.089 196.675 144.877C196.573 144.665 196.522 144.422 196.522 144.149C196.522 143.872 196.575 143.627 196.679 143.416C196.783 143.203 196.93 143.036 197.119 142.917C197.308 142.797 197.532 142.737 197.788 142.737C197.996 142.737 198.18 142.776 198.342 142.853C198.505 142.928 198.635 143.035 198.735 143.172C198.835 143.31 198.895 143.47 198.914 143.654H198.397C198.369 143.526 198.304 143.416 198.202 143.323C198.102 143.231 197.967 143.185 197.797 143.185C197.649 143.185 197.52 143.224 197.408 143.302C197.298 143.379 197.213 143.489 197.151 143.632C197.089 143.774 197.059 143.942 197.059 144.136C197.059 144.335 197.089 144.507 197.149 144.651C197.21 144.796 197.295 144.908 197.405 144.987C197.516 145.066 197.647 145.106 197.797 145.106C197.898 145.106 197.989 145.088 198.071 145.051C198.154 145.013 198.223 144.959 198.278 144.889C198.335 144.819 198.375 144.735 198.397 144.637H198.914C198.895 144.814 198.838 144.971 198.742 145.109C198.646 145.248 198.518 145.357 198.357 145.436C198.197 145.515 198.009 145.555 197.794 145.555ZM199.275 143.231V142.773H201.577V143.231H200.687V145.5H200.169V143.231H199.275ZM202.538 143.71H203.33C203.663 143.71 203.92 143.793 204.1 143.959C204.28 144.125 204.37 144.338 204.37 144.6C204.37 144.77 204.33 144.924 204.249 145.06C204.169 145.196 204.051 145.304 203.896 145.383C203.741 145.461 203.552 145.5 203.33 145.5H202.138V142.773H202.658V145.042H203.33C203.482 145.042 203.608 145.002 203.706 144.923C203.804 144.843 203.853 144.74 203.853 144.616C203.853 144.484 203.804 144.377 203.706 144.294C203.608 144.21 203.482 144.168 203.33 144.168H202.538V143.71Z" fill="#3B4D59"/>
<path d="M232.9 145.5V141.864H234.196C234.479 141.864 234.713 141.915 234.899 142.018C235.085 142.121 235.224 142.262 235.316 142.441C235.408 142.618 235.455 142.818 235.455 143.041C235.455 143.265 235.408 143.466 235.314 143.645C235.222 143.822 235.082 143.963 234.895 144.067C234.709 144.17 234.476 144.222 234.194 144.222H233.303V143.756H234.144C234.323 143.756 234.468 143.726 234.579 143.664C234.69 143.601 234.772 143.516 234.824 143.408C234.876 143.301 234.902 143.178 234.902 143.041C234.902 142.904 234.876 142.782 234.824 142.675C234.772 142.569 234.69 142.485 234.577 142.425C234.466 142.364 234.319 142.334 234.137 142.334H233.448V145.5H232.9ZM236.993 143.197C236.9 143.198 236.812 143.22 236.726 143.263C236.641 143.305 236.571 143.362 236.515 143.433C236.461 143.504 236.433 143.585 236.433 143.675H235.933C235.933 143.547 235.961 143.426 236.018 143.313C236.075 143.199 236.152 143.099 236.25 143.013C236.349 142.926 236.462 142.858 236.59 142.808C236.717 142.759 236.852 142.734 236.993 142.734C237.249 142.734 237.467 142.796 237.644 142.922C237.823 143.046 237.959 143.212 238.051 143.419C238.143 143.625 238.189 143.851 238.189 144.097V144.186C238.189 144.432 238.143 144.659 238.051 144.866C237.959 145.073 237.823 145.239 237.644 145.363C237.467 145.488 237.249 145.55 236.993 145.55C236.787 145.55 236.604 145.506 236.444 145.418C236.284 145.331 236.159 145.211 236.068 145.06C235.978 144.907 235.933 144.733 235.933 144.538H236.433C236.433 144.635 236.459 144.725 236.51 144.808C236.561 144.89 236.628 144.957 236.712 145.008C236.797 145.058 236.891 145.083 236.993 145.085C237.145 145.083 237.271 145.037 237.371 144.946C237.471 144.855 237.546 144.741 237.595 144.603C237.644 144.465 237.669 144.326 237.669 144.186V144.097C237.669 143.952 237.644 143.81 237.595 143.673C237.546 143.536 237.471 143.423 237.371 143.334C237.271 143.244 237.145 143.198 236.993 143.197ZM237.856 143.925V144.334H236.739V143.925H237.856ZM240.628 143.907V144.367H239.151V143.907H240.628ZM239.3 142.773V145.5H238.78V142.773H239.3ZM240.999 142.773V145.5H240.481V142.773H240.999ZM241.709 145.5V142.773H242.24V143.916H242.496L243.396 142.773H244.053L242.997 144.099L244.066 145.5H243.407L242.585 144.41H242.24V145.5H241.709ZM244.998 144.756L246.2 142.773H246.772V145.5H246.252V143.515L245.055 145.5H244.478V142.773H244.998V144.756ZM249.334 143.907V144.367H247.857V143.907H249.334ZM248.006 142.773V145.5H247.486V142.773H248.006ZM249.705 142.773V145.5H249.187V142.773H249.705ZM252.159 142.773V143.231H250.939V145.5H250.415V142.773H252.159ZM253.24 144.756L254.442 142.773H255.014V145.5H254.494V143.515L253.297 145.5H252.72V142.773H253.24V144.756Z" fill="#3B4D59"/>
<path d="M285.207 145.5H284.624L285.933 141.864H286.567L287.875 145.5H287.293L286.265 142.524H286.237L285.207 145.5ZM285.304 144.076H287.194V144.538H285.304V144.076ZM290.206 143.907V144.367H288.729V143.907H290.206ZM288.878 142.773V145.5H288.358V142.773H288.878ZM290.577 142.773V145.5H290.059V142.773H290.577ZM292.081 145.56C291.908 145.56 291.752 145.529 291.612 145.465C291.473 145.399 291.362 145.305 291.28 145.182C291.2 145.059 291.16 144.908 291.16 144.729C291.16 144.576 291.189 144.449 291.248 144.35C291.308 144.25 291.388 144.171 291.488 144.113C291.589 144.055 291.701 144.012 291.826 143.982C291.95 143.952 292.076 143.93 292.206 143.915C292.369 143.896 292.501 143.88 292.603 143.868C292.705 143.855 292.779 143.835 292.825 143.806C292.871 143.778 292.894 143.732 292.894 143.668V143.655C292.894 143.5 292.851 143.38 292.763 143.295C292.677 143.21 292.548 143.167 292.376 143.167C292.197 143.167 292.056 143.207 291.953 143.286C291.852 143.364 291.781 143.451 291.742 143.547L291.243 143.433C291.302 143.268 291.389 143.134 291.502 143.032C291.617 142.929 291.749 142.854 291.898 142.808C292.047 142.761 292.204 142.737 292.369 142.737C292.478 142.737 292.593 142.75 292.715 142.776C292.838 142.801 292.953 142.847 293.06 142.915C293.167 142.982 293.255 143.079 293.324 143.204C293.393 143.329 293.427 143.49 293.427 143.689V145.5H292.909V145.127H292.887C292.853 145.196 292.802 145.263 292.733 145.33C292.664 145.396 292.576 145.451 292.468 145.495C292.361 145.539 292.232 145.56 292.081 145.56ZM292.197 145.134C292.343 145.134 292.469 145.105 292.573 145.047C292.678 144.989 292.758 144.914 292.813 144.82C292.868 144.725 292.896 144.624 292.896 144.516V144.165C292.877 144.184 292.841 144.202 292.786 144.218C292.733 144.234 292.672 144.247 292.603 144.259C292.535 144.27 292.468 144.28 292.403 144.289C292.338 144.297 292.283 144.305 292.239 144.31C292.136 144.323 292.042 144.345 291.957 144.376C291.873 144.407 291.805 144.451 291.755 144.509C291.705 144.566 291.68 144.642 291.68 144.737C291.68 144.868 291.728 144.967 291.826 145.035C291.923 145.101 292.046 145.134 292.197 145.134ZM293.919 145.5L293.918 145.04H294.015C294.091 145.04 294.154 145.024 294.205 144.992C294.257 144.959 294.3 144.904 294.333 144.825C294.366 144.747 294.392 144.64 294.409 144.502C294.427 144.364 294.44 144.19 294.449 143.98L294.496 142.773H296.4V145.5H295.88V143.231H294.988L294.946 144.158C294.935 144.383 294.912 144.579 294.876 144.747C294.842 144.915 294.792 145.056 294.725 145.168C294.659 145.279 294.574 145.363 294.47 145.418C294.366 145.473 294.239 145.5 294.09 145.5H293.919ZM297.628 144.756L298.83 142.773H299.402V145.5H298.882V143.515L297.685 145.5H297.108V142.773H297.628V144.756ZM299.777 143.231V142.773H302.079V143.231H301.189V145.5H300.671V143.231H299.777ZM303.16 144.756L304.362 142.773H304.934V145.5H304.414V143.515L303.217 145.5H302.64V142.773H303.16V144.756ZM305.648 145.5V142.773H306.179V143.916H306.434L307.335 142.773H307.992L306.935 144.099L308.004 145.5H307.345L306.523 144.41H306.179V145.5H305.648ZM309.21 145.56C309.037 145.56 308.881 145.529 308.741 145.465C308.602 145.399 308.491 145.305 308.409 145.182C308.329 145.059 308.289 144.908 308.289 144.729C308.289 144.576 308.318 144.449 308.377 144.35C308.437 144.25 308.516 144.171 308.617 144.113C308.718 144.055 308.83 144.012 308.954 143.982C309.079 143.952 309.205 143.93 309.334 143.915C309.498 143.896 309.63 143.88 309.732 143.868C309.834 143.855 309.908 143.835 309.954 143.806C310 143.778 310.023 143.732 310.023 143.668V143.655C310.023 143.5 309.98 143.38 309.892 143.295C309.806 143.21 309.677 143.167 309.505 143.167C309.326 143.167 309.185 143.207 309.082 143.286C308.98 143.364 308.91 143.451 308.871 143.547L308.372 143.433C308.431 143.268 308.518 143.134 308.631 143.032C308.746 142.929 308.878 142.854 309.027 142.808C309.176 142.761 309.333 142.737 309.498 142.737C309.607 142.737 309.722 142.75 309.844 142.776C309.967 142.801 310.082 142.847 310.188 142.915C310.296 142.982 310.384 143.079 310.453 143.204C310.522 143.329 310.556 143.49 310.556 143.689V145.5H310.038V145.127H310.016C309.982 145.196 309.93 145.263 309.862 145.33C309.793 145.396 309.705 145.451 309.597 145.495C309.489 145.539 309.36 145.56 309.21 145.56ZM309.326 145.134C309.472 145.134 309.598 145.105 309.702 145.047C309.807 144.989 309.887 144.914 309.942 144.82C309.997 144.725 310.025 144.624 310.025 144.516V144.165C310.006 144.184 309.969 144.202 309.915 144.218C309.862 144.234 309.801 144.247 309.732 144.259C309.664 144.27 309.597 144.28 309.532 144.289C309.466 144.297 309.412 144.305 309.368 144.31C309.265 144.323 309.171 144.345 309.086 144.376C309.002 144.407 308.934 144.451 308.883 144.509C308.834 144.566 308.809 144.642 308.809 144.737C308.809 144.868 308.857 144.967 308.954 145.035C309.052 145.101 309.175 145.134 309.326 145.134Z" fill="#3B4D59"/>
<path d="M179.142 62.5001H176.892L180.989 50.8637H183.591L187.693 62.5001H185.443L182.335 53.2501H182.244L179.142 62.5001ZM179.216 57.9376H185.352V59.6308H179.216V57.9376ZM189.32 65.7728C189.039 65.7728 188.78 65.7501 188.541 65.7046C188.306 65.663 188.119 65.6137 187.979 65.5569L188.456 63.9546C188.755 64.0418 189.022 64.0834 189.257 64.0796C189.492 64.0758 189.698 64.002 189.876 63.858C190.058 63.7179 190.212 63.483 190.337 63.1535L190.513 62.6819L187.348 53.7728H189.53L191.541 60.3637H191.632L193.649 53.7728H195.837L192.342 63.5569C192.179 64.019 191.964 64.4149 191.695 64.7444C191.426 65.0777 191.096 65.3315 190.706 65.5058C190.32 65.6838 189.857 65.7728 189.32 65.7728ZM195.768 65.0342V60.8069H196.462C196.647 60.663 196.803 60.4679 196.928 60.2217C197.053 59.9717 197.155 59.6781 197.234 59.341C197.318 59.0001 197.386 58.6194 197.439 58.199C197.492 57.7747 197.539 57.3183 197.581 56.8296L197.831 53.7728H204.138V60.8069H205.49V65.0342H203.501V62.5001H197.791V65.0342H195.768ZM198.575 60.8069H202.172V55.4319H199.615L199.479 56.8296C199.403 57.7539 199.303 58.5455 199.178 59.2046C199.053 59.8637 198.852 60.3978 198.575 60.8069ZM209.009 59.716L212.503 53.7728H214.616V62.5001H212.628V56.5512L209.145 62.5001H207.026V53.7728H209.009V59.716ZM215.751 55.4603V53.7728H223.388V55.4603H220.564V62.5001H218.575V55.4603H215.751ZM225.116 62.5001V50.8637H229.48C230.374 50.8637 231.124 51.0304 231.73 51.3637C232.34 51.6971 232.8 52.1554 233.111 52.7387C233.425 53.3183 233.582 53.9774 233.582 54.716C233.582 55.4622 233.425 56.1251 233.111 56.7046C232.796 57.2842 232.332 57.7406 231.719 58.074C231.105 58.4035 230.349 58.5683 229.452 58.5683H226.56V56.8353H229.168C229.69 56.8353 230.118 56.7444 230.452 56.5626C230.785 56.3808 231.031 56.1308 231.19 55.8126C231.353 55.4944 231.435 55.1289 231.435 54.716C231.435 54.3031 231.353 53.9395 231.19 53.6251C231.031 53.3107 230.783 53.0664 230.446 52.8921C230.113 52.7141 229.683 52.6251 229.156 52.6251H227.224V62.5001H225.116ZM238.436 55.3524C238.148 55.3562 237.883 55.4187 237.641 55.5399C237.398 55.6611 237.203 55.8258 237.055 56.0342C236.911 56.2387 236.839 56.4774 236.839 56.7501H234.947C234.947 56.3107 235.038 55.9016 235.22 55.5228C235.402 55.144 235.652 54.8145 235.97 54.5342C236.292 54.2539 236.663 54.0361 237.084 53.8808C237.508 53.7217 237.959 53.6421 238.436 53.6421C239.285 53.6421 240 53.8391 240.584 54.233C241.171 54.627 241.614 55.1573 241.913 55.824C242.216 56.4868 242.368 57.2217 242.368 58.0285V58.2728C242.368 59.0796 242.218 59.8164 241.919 60.483C241.62 61.1459 241.177 61.6743 240.589 62.0683C240.006 62.4622 239.288 62.6592 238.436 62.6592C237.754 62.6592 237.15 62.5209 236.624 62.2444C236.101 61.9641 235.69 61.574 235.391 61.074C235.095 60.574 234.947 59.9906 234.947 59.324H236.839C236.839 59.6118 236.908 59.8789 237.044 60.1251C237.18 60.3675 237.368 60.5626 237.607 60.7103C237.849 60.858 238.125 60.9338 238.436 60.9376C238.902 60.9338 239.277 60.7955 239.561 60.5228C239.849 60.2501 240.057 59.9092 240.186 59.5001C240.319 59.091 240.385 58.6819 240.385 58.2728V58.0285C240.385 57.5891 240.319 57.1668 240.186 56.7615C240.057 56.3524 239.849 56.0171 239.561 55.7558C239.277 55.4906 238.902 55.3562 238.436 55.3524ZM241.027 57.4433V58.8069H237.703V57.4433H241.027ZM250.098 57.2842V58.9717H245.45V57.2842H250.098ZM246.087 53.7728V62.5001H244.104V53.7728H246.087ZM251.445 53.7728V62.5001H249.467V53.7728H251.445ZM253.526 62.5001V53.7728H255.582V57.2955H256.332L258.957 53.7728H261.435L258.202 58.0569L261.469 62.5001H258.98L256.588 59.2103H255.582V62.5001H253.526ZM264.618 59.716L268.112 53.7728H270.226V62.5001H268.237V56.5512L264.754 62.5001H262.635V53.7728H264.618V59.716ZM278.332 57.2842V58.9717H273.685V57.2842H278.332ZM274.321 53.7728V62.5001H272.338V53.7728H274.321ZM279.679 53.7728V62.5001H277.702V53.7728H279.679ZM287.533 53.7728V55.4603H283.771V62.5001H281.76V53.7728H287.533Z" fill="#0A142F"/>
<path d="M269 189V229.5M269 189H326M269 189H156C153.239 189 151 186.762 151 184V16.5001C151 13.7387 153.239 11.5001 156 11.5001H439C441.761 11.5001 444 13.7387 444 16.5001V184C444 186.762 441.761 189 439 189H326M269 229.5H245.5C243.015 229.5 241 231.515 241 234C241 236.485 243.015 238.5 245.5 238.5H348C350.485 238.5 352.5 236.485 352.5 234C352.5 231.515 350.485 229.5 348 229.5H326M269 229.5H326M326 189V229.5" stroke="#24333D" stroke-width="2"/>
</svg>
