<svg width="28" height="33" viewBox="0 0 28 33" fill="none" xmlns="http://www.w3.org/2000/svg">
<path d="M16 6C16 9.31371 13.3137 12 10 12C6.68629 12 4 9.31371 4 6C4 2.68629 6.68629 0 10 0C13.3137 0 16 2.68629 16 6ZM6.52444 6C6.52444 7.9195 8.0805 9.47556 10 9.47556C11.9195 9.47556 13.4756 7.9195 13.4756 6C13.4756 4.0805 11.9195 2.52444 10 2.52444C8.0805 2.52444 6.52444 4.0805 6.52444 6Z" fill="#F5A623"/>
<path d="M18 11.9999C18.6566 11.9999 19.3068 11.8706 19.9134 11.6193C20.52 11.3681 21.0712 10.9998 21.5355 10.5355C21.9998 10.0712 22.3681 9.51998 22.6194 8.91336C22.8707 8.30673 23 7.65655 23 6.99994C23 6.34333 22.8707 5.69315 22.6194 5.08652C22.3681 4.47989 21.9998 3.9287 21.5355 3.4644C21.0712 3.00011 20.52 2.63181 19.9134 2.38054C19.3068 2.12927 18.6566 1.99994 18 1.99994V3.87073C18.4109 3.87073 18.8178 3.95167 19.1975 4.10893C19.5771 4.26619 19.9221 4.49668 20.2127 4.78726C20.5033 5.07783 20.7338 5.42279 20.891 5.80244C21.0483 6.1821 21.1292 6.58901 21.1292 6.99994C21.1292 7.41087 21.0483 7.81778 20.891 8.19743C20.7338 8.57709 20.5033 8.92205 20.2127 9.21262C19.9221 9.5032 19.5771 9.73369 19.1975 9.89095C18.8178 10.0482 18.4109 10.1291 18 10.1291V11.9999Z" fill="#F5A623"/>
<path d="M20 23C20 20.3478 18.9464 17.8043 17.0711 15.9289C15.1957 14.0536 12.6522 13 10 13C7.34784 13 4.8043 14.0536 2.92893 15.9289C1.05357 17.8043 4.00466e-07 20.3478 0 23L2.68711 23C2.68711 21.0605 3.45758 19.2004 4.82901 17.829C6.20044 16.4576 8.0605 15.6871 10 15.6871C11.9395 15.6871 13.7996 16.4576 15.171 17.829C16.5424 19.2004 17.3129 21.0605 17.3129 23H20Z" fill="#F5A623"/>
<path d="M28 23C28 21.6868 27.7413 20.3864 27.2388 19.1732C26.7362 17.9599 25.9997 16.8575 25.0711 15.9289C24.1425 15.0003 23.0401 14.2638 21.8268 13.7612C20.6136 13.2587 19.3132 13 18 13V15.0275C19.047 15.0275 20.0837 15.2338 21.0509 15.6344C22.0182 16.0351 22.8971 16.6223 23.6374 17.3626C24.3777 18.1029 24.9649 18.9818 25.3656 19.9491C25.7662 20.9163 25.9725 21.953 25.9725 23H28Z" fill="#F5A623"/>
</svg>
