<svg width="201" height="197" viewBox="0 0 201 197" fill="none" xmlns="http://www.w3.org/2000/svg">
<path d="M168 41.1259C169.02 28.2087 173.584 25.2096 185 25.1259C183.907 38.1712 179.561 42.0155 168 41.1259Z" fill="#F5A623" stroke="#24333D"/>
<path d="M158.72 41.4157C145.776 40.8295 142.625 36.3693 142.159 24.9621C155.233 25.6164 159.221 29.8316 158.72 41.4157Z" fill="#F5A623" stroke="#24333D"/>
<path d="M165.826 23.5829C155.347 15.962 155.175 10.504 161.071 0.727175C171.621 8.47676 172.627 14.1917 165.826 23.5829Z" fill="#6B7A8D" stroke="#24333D"/>
<path d="M164 47.626C164 47.626 168 38.626 174.5 35.126" stroke="#24333D" stroke-linecap="round"/>
<path d="M163.5 48.126C159.74 41.8544 157.084 38.917 151.5 34.626" stroke="#24333D" stroke-linecap="round"/>
<path d="M163.75 56.626H178.816C179.435 56.626 179.906 57.1828 179.802 57.7931L175.141 85.2931C175.06 85.7741 174.643 86.126 174.155 86.126H153.345C152.857 86.126 152.44 85.7741 152.359 85.2931L147.698 57.7931C147.594 57.1828 148.065 56.626 148.684 56.626H163.75ZM163.75 56.626C163.75 39.4725 167.871 29.1259 163.75 12.626" stroke="#24333D" stroke-linecap="round"/>
<path d="M0 86.626H200.5" stroke="#24333D"/>
<path d="M20.5 52.126V28.126C20.5 27.8499 20.7239 27.626 21 27.626H27C27.2761 27.626 27.5 27.8499 27.5 28.126V52.126C27.5 52.4022 27.2761 52.626 27 52.626H21C20.7239 52.626 20.5 52.4022 20.5 52.126Z" stroke="#24333D" stroke-linecap="round"/>
<path d="M41.5 52.126V28.126C41.5 27.8499 41.7239 27.626 42 27.626H48C48.2761 27.626 48.5 27.8499 48.5 28.126V52.126C48.5 52.4022 48.2761 52.626 48 52.626H42C41.7239 52.626 41.5 52.4022 41.5 52.126Z" stroke="#24333D" stroke-linecap="round"/>
<path d="M71.1612 51.625L64.1442 28.6736C64.0635 28.4096 64.2121 28.13 64.4762 28.0493L70.214 26.2951C70.4781 26.2143 70.7576 26.363 70.8384 26.627L77.8553 49.5784C77.936 49.8424 77.7874 50.122 77.5233 50.2027L71.7855 51.9569C71.5214 52.0377 71.2419 51.889 71.1612 51.625Z" stroke="#24333D" stroke-linecap="round"/>
<path d="M31.5 86.126H15C14.1716 86.126 13.5 85.4545 13.5 84.626V13.126C13.5 12.0215 14.3954 11.126 15.5 11.126H31.5C32.6046 11.126 33.5 12.0215 33.5 13.126V84.126C33.5 85.2306 32.6046 86.126 31.5 86.126Z" stroke="#24333D"/>
<path d="M29.5 73.626C29.5 76.9397 26.8137 79.626 23.5 79.626C20.1863 79.626 17.5 76.9397 17.5 73.626C17.5 70.3123 20.1863 67.626 23.5 67.626C26.8137 67.626 29.5 70.3123 29.5 73.626ZM18.5681 73.626C18.5681 76.3498 20.7762 78.5579 23.5 78.5579C26.2238 78.5579 28.4319 76.3498 28.4319 73.626C28.4319 70.9022 26.2238 68.6941 23.5 68.6941C20.7762 68.6941 18.5681 70.9022 18.5681 73.626Z" fill="#24333D"/>
<path d="M50.5 73.626C50.5 76.9397 47.8137 79.626 44.5 79.626C41.1863 79.626 38.5 76.9397 38.5 73.626C38.5 70.3123 41.1863 67.626 44.5 67.626C47.8137 67.626 50.5 70.3123 50.5 73.626ZM39.5681 73.626C39.5681 76.3498 41.7762 78.5579 44.5 78.5579C47.2238 78.5579 49.4319 76.3498 49.4319 73.626C49.4319 70.9022 47.2238 68.6941 44.5 68.6941C41.7762 68.6941 39.5681 70.9022 39.5681 73.626Z" fill="#24333D"/>
<path d="M86.5 71.626C86.5 74.9397 83.8137 77.626 80.5 77.626C77.1863 77.626 74.5 74.9397 74.5 71.626C74.5 68.3123 77.1863 65.626 80.5 65.626C83.8137 65.626 86.5 68.3123 86.5 71.626ZM75.5681 71.626C75.5681 74.3498 77.7762 76.5579 80.5 76.5579C83.2238 76.5579 85.4319 74.3498 85.4319 71.626C85.4319 68.9022 83.2238 66.6941 80.5 66.6941C77.7762 66.6941 75.5681 68.9022 75.5681 71.626Z" fill="#24333D"/>
<path d="M52.5 86.126H36C35.1716 86.126 34.5 85.4545 34.5 84.626V13.126C34.5 12.0215 35.3954 11.126 36.5 11.126H52.5C53.6046 11.126 54.5 12.0215 54.5 13.126V84.126C54.5 85.2306 53.6046 86.126 52.5 86.126Z" stroke="#24333D"/>
<path d="M40.5 21.126H49.5" stroke="#24333D" stroke-linecap="round"/>
<path d="M39.5 62.126H50" stroke="#24333D" stroke-linecap="round"/>
<path d="M92.1462 81.1308L76.3717 85.9699C75.5797 86.2129 74.7407 85.7678 74.4977 84.9758L54.5879 20.0735C54.5296 19.8835 54.5 19.6858 54.5 19.4871L54.4998 15.7083C54.4998 14.8296 55.0733 14.0538 55.9133 13.7962L70.1504 9.42877C71.2064 9.10483 72.3251 9.69828 72.649 10.7543L93.4717 78.6322C93.7956 79.6882 93.2022 80.8069 92.1462 81.1308Z" stroke="#24333D"/>
<path d="M61.6108 22.5084L70.2151 19.8689" stroke="#24333D" stroke-linecap="round"/>
<path d="M72.6792 61.9988L82.7175 58.9194" stroke="#24333D" stroke-linecap="round"/>
<path d="M18 19.4725H29" stroke="#24333D" stroke-linecap="round"/>
<path d="M18 61.4725H29" stroke="#24333D" stroke-linecap="round"/>
<path d="M33.9077 85.8883C33.9077 85.8848 33.9077 85.8813 33.9077 85.7738C33.9077 85.6663 33.9077 85.4549 33.9095 85.339C33.9112 85.2231 33.9148 85.209 33.9184 85.1624" stroke="#24333D" stroke-width="2" stroke-linecap="round"/>
<path d="M168 150.126C169.02 137.209 173.584 134.21 185 134.126C183.907 147.171 179.561 151.016 168 150.126Z" fill="#6B7A8D" stroke="#24333D"/>
<path d="M158.72 150.416C145.776 149.829 142.625 145.369 142.159 133.962C155.233 134.616 159.221 138.832 158.72 150.416Z" fill="#6B7A8D" stroke="#24333D"/>
<path d="M163.466 132.818C154.751 123.23 155.689 117.85 163.445 109.473C172.205 119.201 172.03 125.001 163.466 132.818Z" fill="#F5A623" stroke="#24333D"/>
<path d="M164 156.626C164 156.626 168 147.626 174.5 144.126" stroke="#24333D" stroke-linecap="round"/>
<path d="M163.5 157.126C159.74 150.854 157.084 147.917 151.5 143.626" stroke="#24333D" stroke-linecap="round"/>
<path d="M163.75 165.626H178.816C179.435 165.626 179.906 166.183 179.802 166.793L175.141 194.293C175.06 194.774 174.643 195.126 174.155 195.126H153.345C152.857 195.126 152.44 194.774 152.359 194.293L147.698 166.793C147.594 166.183 148.065 165.626 148.684 165.626H163.75ZM163.75 165.626V121.626" stroke="#24333D" stroke-linecap="round"/>
<path d="M0 195.626H200.5" stroke="#24333D"/>
<path d="M20.5 161.126V137.126C20.5 136.85 20.7239 136.626 21 136.626H27C27.2761 136.626 27.5 136.85 27.5 137.126V161.126C27.5 161.402 27.2761 161.626 27 161.626H21C20.7239 161.626 20.5 161.402 20.5 161.126Z" stroke="#24333D" stroke-linecap="round"/>
<path d="M41.5 161.126V137.126C41.5 136.85 41.7239 136.626 42 136.626H48C48.2761 136.626 48.5 136.85 48.5 137.126V161.126C48.5 161.402 48.2761 161.626 48 161.626H42C41.7239 161.626 41.5 161.402 41.5 161.126Z" stroke="#24333D" stroke-linecap="round"/>
<path d="M71.1612 160.625L64.1442 137.674C64.0635 137.41 64.2121 137.13 64.4762 137.049L70.214 135.295C70.4781 135.214 70.7576 135.363 70.8384 135.627L77.8553 158.578C77.936 158.842 77.7874 159.122 77.5233 159.203L71.7855 160.957C71.5214 161.038 71.2419 160.889 71.1612 160.625Z" stroke="#24333D" stroke-linecap="round"/>
<path d="M31.5 195.126H15C14.1716 195.126 13.5 194.454 13.5 193.626V122.126C13.5 121.021 14.3954 120.126 15.5 120.126H31.5C32.6046 120.126 33.5 121.021 33.5 122.126V193.126C33.5 194.231 32.6046 195.126 31.5 195.126Z" stroke="#24333D"/>
<path d="M29.5 182.626C29.5 185.94 26.8137 188.626 23.5 188.626C20.1863 188.626 17.5 185.94 17.5 182.626C17.5 179.312 20.1863 176.626 23.5 176.626C26.8137 176.626 29.5 179.312 29.5 182.626ZM18.5681 182.626C18.5681 185.35 20.7762 187.558 23.5 187.558C26.2238 187.558 28.4319 185.35 28.4319 182.626C28.4319 179.902 26.2238 177.694 23.5 177.694C20.7762 177.694 18.5681 179.902 18.5681 182.626Z" fill="#24333D"/>
<path d="M50.5 182.626C50.5 185.94 47.8137 188.626 44.5 188.626C41.1863 188.626 38.5 185.94 38.5 182.626C38.5 179.312 41.1863 176.626 44.5 176.626C47.8137 176.626 50.5 179.312 50.5 182.626ZM39.5681 182.626C39.5681 185.35 41.7762 187.558 44.5 187.558C47.2238 187.558 49.4319 185.35 49.4319 182.626C49.4319 179.902 47.2238 177.694 44.5 177.694C41.7762 177.694 39.5681 179.902 39.5681 182.626Z" fill="#24333D"/>
<path d="M86.5 180.626C86.5 183.94 83.8137 186.626 80.5 186.626C77.1863 186.626 74.5 183.94 74.5 180.626C74.5 177.312 77.1863 174.626 80.5 174.626C83.8137 174.626 86.5 177.312 86.5 180.626ZM75.5681 180.626C75.5681 183.35 77.7762 185.558 80.5 185.558C83.2238 185.558 85.4319 183.35 85.4319 180.626C85.4319 177.902 83.2238 175.694 80.5 175.694C77.7762 175.694 75.5681 177.902 75.5681 180.626Z" fill="#24333D"/>
<path d="M52.5 195.126H36C35.1716 195.126 34.5 194.454 34.5 193.626V122.126C34.5 121.021 35.3954 120.126 36.5 120.126H52.5C53.6046 120.126 54.5 121.021 54.5 122.126V193.126C54.5 194.231 53.6046 195.126 52.5 195.126Z" stroke="#24333D"/>
<path d="M40.5 130.126H49.5" stroke="#24333D" stroke-linecap="round"/>
<path d="M39.5 171.126H50" stroke="#24333D" stroke-linecap="round"/>
<path d="M92.1462 190.131L76.3717 194.97C75.5797 195.213 74.7407 194.768 74.4977 193.976L54.5879 129.074C54.5296 128.884 54.5 128.686 54.5 128.487L54.4998 124.708C54.4998 123.83 55.0733 123.054 55.9133 122.796L70.1504 118.429C71.2064 118.105 72.3251 118.698 72.649 119.754L93.4717 187.632C93.7956 188.688 93.2022 189.807 92.1462 190.131Z" stroke="#24333D"/>
<path d="M61.6108 131.508L70.2151 128.869" stroke="#24333D" stroke-linecap="round"/>
<path d="M72.6792 170.999L82.7175 167.919" stroke="#24333D" stroke-linecap="round"/>
<path d="M18 128.472H29" stroke="#24333D" stroke-linecap="round"/>
<path d="M18 170.472H29" stroke="#24333D" stroke-linecap="round"/>
<path d="M33.9077 194.888C33.9077 194.885 33.9077 194.881 33.9077 194.774C33.9077 194.666 33.9077 194.455 33.9095 194.339C33.9112 194.223 33.9148 194.209 33.9184 194.162" stroke="#24333D" stroke-width="2" stroke-linecap="round"/>
</svg>
