<svg width="24" height="23" viewBox="0 0 24 23" fill="none" xmlns="http://www.w3.org/2000/svg">
<path d="M1 17V22H23V17" stroke="white" stroke-width="2"/>
<path d="M13 1V0L11 0V1H12L13 1ZM11.2929 18.7071C11.6834 19.0976 12.3166 19.0976 12.7071 18.7071L19.0711 12.3431C19.4616 11.9526 19.4616 11.3195 19.0711 10.9289C18.6805 10.5384 18.0474 10.5384 17.6569 10.9289L12 16.5858L6.34315 10.9289C5.95262 10.5384 5.31946 10.5384 4.92893 10.9289C4.53841 11.3195 4.53841 11.9526 4.92893 12.3431L11.2929 18.7071ZM12 1H11L11 18H12H13L13 1L12 1Z" fill="white"/>
</svg>
