<svg width="31" height="38" viewBox="0 0 31 38" fill="none" xmlns="http://www.w3.org/2000/svg">
<path d="M8.87222 18.156L13.0143 22.1496C13.0414 22.1758 13.0844 22.1758 13.1115 22.1496L22.4919 13.1053M29.8736 6.3598C23.3677 6.25026 21.8208 4.82974 16.2001 1.01216C16.1755 0.995479 16.1418 0.995958 16.1179 1.01356C10.686 5.01386 7.20177 6.2842 1.23266 6.72092C1.19681 6.72354 1.16799 6.75409 1.16697 6.79002C0.706821 22.9992 0.126302 29.1969 15.4177 36.9677C15.4371 36.9776 15.4615 36.9779 15.4811 36.9685C28.3172 30.8226 30.3978 25.9739 29.944 6.42977C29.9431 6.39218 29.9112 6.36044 29.8736 6.3598Z" stroke="#F5A623" stroke-width="2" stroke-linecap="round"/>
</svg>
