<svg width="21" height="28" viewBox="0 0 21 28" fill="none" xmlns="http://www.w3.org/2000/svg">
<mask id="path-1-inside-1_216_107" fill="white">
<path d="M15.2796 10.3376C15.2796 13.1245 13.0204 15.3837 10.2335 15.3837C7.44659 15.3837 5.18738 13.1245 5.18738 10.3376C5.18738 7.55072 7.44659 5.2915 10.2335 5.2915C13.0204 5.2915 15.2796 7.55072 15.2796 10.3376ZM6.67159 10.3376C6.67159 12.3048 8.2663 13.8995 10.2335 13.8995C12.2007 13.8995 13.7954 12.3048 13.7954 10.3376C13.7954 8.37043 12.2007 6.77572 10.2335 6.77572C8.2663 6.77572 6.67159 8.37043 6.67159 10.3376Z"/>
</mask>
<path d="M15.2796 10.3376C15.2796 13.1245 13.0204 15.3837 10.2335 15.3837C7.44659 15.3837 5.18738 13.1245 5.18738 10.3376C5.18738 7.55072 7.44659 5.2915 10.2335 5.2915C13.0204 5.2915 15.2796 7.55072 15.2796 10.3376ZM6.67159 10.3376C6.67159 12.3048 8.2663 13.8995 10.2335 13.8995C12.2007 13.8995 13.7954 12.3048 13.7954 10.3376C13.7954 8.37043 12.2007 6.77572 10.2335 6.77572C8.2663 6.77572 6.67159 8.37043 6.67159 10.3376Z" fill="#D9D9D9" stroke="#0A142F" stroke-width="2" mask="url(#path-1-inside-1_216_107)"/>
<path d="M0.775872 9.81058C0.847111 10.7093 0.966229 11.5762 1.15051 12.356C2.65899 18.7398 10.2335 26.4851 10.2335 26.4851C10.2335 26.4851 17.808 18.7398 19.3165 12.356C19.5008 11.5762 19.6199 10.7093 19.6911 9.81058C20.1031 4.61258 15.4478 0.75 10.2335 0.75C5.01919 0.75 0.363852 4.61258 0.775872 9.81058Z" stroke="#0A142F" stroke-width="1.5"/>
</svg>
