<svg width="53" height="36" viewBox="0 0 53 36" fill="none" xmlns="http://www.w3.org/2000/svg">
<g clip-path="url(#clip0_231_235)">
<path d="M34.8582 9.108C34.8582 14.1382 30.9762 18.216 26.1874 18.216C21.3987 18.216 17.5166 14.1382 17.5166 9.108C17.5166 4.07779 21.3987 0 26.1874 0C30.9762 0 34.8582 4.07779 34.8582 9.108ZM20.3252 9.108C20.3252 12.5089 22.9498 15.2658 26.1874 15.2658C29.425 15.2658 32.0497 12.5089 32.0497 9.108C32.0497 5.70713 29.425 2.95018 26.1874 2.95018C22.9498 2.95018 20.3252 5.70713 20.3252 9.108Z" fill="#F5A623"/>
<path d="M37.7488 18.2159C38.6977 18.2159 39.6373 18.0196 40.514 17.6381C41.3906 17.2567 42.1872 16.6976 42.8581 15.9928C43.5291 15.288 44.0613 14.4513 44.4245 13.5305C44.7876 12.6096 44.9745 11.6226 44.9745 10.6259C44.9745 9.62916 44.7876 8.64218 44.4245 7.72132C44.0613 6.80046 43.5291 5.96374 42.8581 5.25895C42.1872 4.55415 41.3906 3.99508 40.514 3.61364C39.6373 3.23221 38.6977 3.03589 37.7488 3.03589V5.87575C38.3427 5.87575 38.9307 5.99862 39.4793 6.23734C40.028 6.47605 40.5265 6.82595 40.9464 7.26704C41.3664 7.70813 41.6995 8.23178 41.9267 8.80809C42.154 9.3844 42.2709 10.0021 42.2709 10.6259C42.2709 11.2497 42.154 11.8674 41.9267 12.4437C41.6995 13.02 41.3664 13.5436 40.9464 13.9847C40.5265 14.4258 40.028 14.7757 39.4794 15.0144C38.9307 15.2532 38.3427 15.376 37.7488 15.376V18.2159Z" fill="#F5A623"/>
<path d="M40.6393 34.914C40.6393 30.888 39.1167 27.0269 36.4066 24.1801C33.6964 21.3333 30.0207 19.734 26.1879 19.734C22.3552 19.734 18.6794 21.3333 15.9693 24.1801C13.2591 27.0269 11.7366 30.888 11.7366 34.914H14.9346C14.9346 31.779 16.1202 28.7723 18.2306 26.5555C20.341 24.3387 23.2034 23.0933 26.1879 23.0933C29.1725 23.0933 32.0348 24.3387 34.1452 26.5555C36.2556 28.7723 37.4413 31.779 37.4413 34.914H40.6393Z" fill="#F5A623"/>
<path d="M52.2001 34.914C52.2001 32.9205 51.8263 30.9466 51.1 29.1049C50.3738 27.2632 49.3093 25.5897 47.9674 24.1801C46.6254 22.7705 45.0323 21.6524 43.279 20.8895C41.5257 20.1267 39.6465 19.734 37.7487 19.734V22.8118C39.2617 22.8118 40.7599 23.1248 42.1577 23.733C43.5556 24.3412 44.8257 25.2327 45.8955 26.3565C46.9654 27.4803 47.814 28.8144 48.393 30.2827C48.972 31.751 49.27 33.3247 49.27 34.914H52.2001Z" fill="#F5A623"/>
<path d="M14.7141 19.4809C13.748 19.4809 12.7913 19.281 11.8987 18.8926C11.0061 18.5043 10.1951 17.935 9.51189 17.2174C8.82872 16.4998 8.2868 15.6479 7.91708 14.7103C7.54735 13.7727 7.35706 12.7678 7.35706 11.7529C7.35706 10.738 7.54735 9.73313 7.91708 8.79552C8.28681 7.85792 8.82872 7.00599 9.51189 6.28838C10.1951 5.57077 11.0061 5.00153 11.8987 4.61316C12.7913 4.22479 13.748 4.0249 14.7141 4.0249V6.9164C14.1095 6.9164 13.5107 7.0415 12.9521 7.28456C12.3935 7.52761 11.8859 7.88387 11.4583 8.33298C11.0308 8.78209 10.6916 9.31526 10.4602 9.90205C10.2289 10.4888 10.1098 11.1178 10.1098 11.7529C10.1098 12.388 10.2289 13.017 10.4602 13.6038C10.6916 14.1905 11.0308 14.7237 11.4583 15.1728C11.8859 15.6219 12.3935 15.9782 12.9521 16.2212C13.5107 16.4643 14.1095 16.5894 14.7141 16.5894V19.4809Z" fill="#F5A623"/>
<path d="M0 36.2249C0 34.1952 0.348875 32.1854 1.02671 30.3102C1.70454 28.435 2.69805 26.7311 3.95053 25.2959C5.203 23.8607 6.68989 22.7222 8.32633 21.9454C9.96276 21.1687 11.7166 20.7689 13.4879 20.7689V23.9027C12.0758 23.9027 10.6775 24.2214 9.37286 24.8407C8.06822 25.4599 6.8828 26.3676 5.88427 27.5118C4.88574 28.656 4.09367 30.0144 3.55327 31.5094C3.01287 33.0044 2.73473 34.6067 2.73473 36.2249H0Z" fill="#F5A623"/>
</g>
<defs>
<clipPath id="clip0_231_235">
<rect width="53" height="36" fill="white"/>
</clipPath>
</defs>
</svg>
