<svg width="78" height="77" viewBox="0 0 78 77" fill="none" xmlns="http://www.w3.org/2000/svg">
<path d="M58.3352 7.62318C50.6346 2.50916 41.3184 0.41473 32.1699 1.74079C23.0215 3.06686 14.6834 7.72025 8.75172 14.8103C2.82005 21.9003 -0.288511 30.9288 0.021067 40.1677C0.330645 49.4066 4.03661 58.2068 10.4296 64.8838C16.8226 71.5609 25.4535 75.6457 34.6702 76.3564C43.8869 77.067 53.042 74.3537 60.383 68.7356C67.724 63.1176 72.7353 54.9896 74.4576 45.9073C76.1798 36.8251 74.4921 27.4268 69.7175 19.5112L67.2136 21.0215C71.6165 28.3208 73.1728 36.9874 71.5846 45.3625C69.9965 53.7377 65.3754 61.2329 58.6059 66.4135C51.8364 71.5941 43.3941 74.0962 34.895 73.4409C26.3958 72.7855 18.4369 69.0188 12.5417 62.8616C6.64645 56.7044 3.22902 48.5894 2.94354 40.0698C2.65807 31.5502 5.5246 23.2246 10.9945 16.6866C16.4643 10.1486 24.1532 5.85748 32.5894 4.63466C41.0256 3.41184 49.6165 5.34321 56.7175 10.0591L58.3352 7.62318Z" fill="#F5A623"/>
<path d="M50.3439 18.9341C45.6268 15.8015 39.9238 14.5095 34.3172 15.3034C28.7105 16.0974 23.5904 18.9219 19.9286 23.2411C16.2667 27.5602 14.3178 33.0734 14.4518 38.7344C14.5858 44.3954 16.7933 49.8102 20.6555 53.9513C24.5176 58.0923 29.7656 60.6715 35.4035 61.1992C41.0415 61.727 46.6769 60.1667 51.2406 56.8143C55.8042 53.462 58.9783 48.551 60.1606 43.0132C61.3429 37.4755 60.4511 31.6964 57.6545 26.7726L55.095 28.2264C57.5355 32.5231 58.3137 37.5661 57.2819 42.3986C56.2502 47.2311 53.4803 51.5167 49.4979 54.4421C45.5155 57.3674 40.5978 58.7291 35.6779 58.2685C30.758 57.808 26.1784 55.5573 22.8081 51.9436C19.4378 48.33 17.5114 43.6048 17.3945 38.6648C17.2776 33.7248 18.9782 28.9137 22.1738 25.1446C25.3693 21.3755 29.8373 18.9107 34.7299 18.2179C39.6224 17.5251 44.5991 18.6525 48.7155 21.3862L50.3439 18.9341Z" fill="#F5A623"/>
<path d="M40.4834 29.0604C38.4962 28.5807 36.4066 28.7626 34.5322 29.5786C32.6578 30.3945 31.1009 31.7999 30.098 33.5814C29.0951 35.3628 28.701 37.4228 28.9756 39.4486C29.2501 41.4744 30.1783 43.3553 31.6192 44.8055C33.0601 46.2557 34.9349 47.196 36.9589 47.4836C38.9829 47.7712 41.0454 47.3904 42.8333 46.399C44.6211 45.4077 46.0365 43.8599 46.8646 41.9907C47.6926 40.1216 47.888 38.0333 47.4211 36.0431L44.6232 36.6995C44.9472 38.0806 44.8116 39.5297 44.237 40.8267C43.6624 42.1237 42.6802 43.1977 41.4396 43.8857C40.1989 44.5736 38.7677 44.8379 37.3632 44.6383C35.9587 44.4387 34.6578 43.7862 33.6579 42.7799C32.6581 41.7735 32.014 40.4684 31.8234 39.0626C31.6329 37.6569 31.9064 36.2274 32.6023 34.9912C33.2983 33.7551 34.3786 32.7798 35.6793 32.2136C36.98 31.6474 38.43 31.5212 39.8089 31.8541L40.4834 29.0604Z" fill="#F5A623"/>
<path d="M59.9478 17.242H67.1704L75.8375 9.84755L69.3372 7.68076L67.1704 1.90267L59.9478 10.0194V17.242ZM59.9478 17.242L44.7803 31.6873" stroke="#F5A623" stroke-width="2"/>
<path d="M40.4468 30.2427H46.2249V36.0208L39.0023 37.4653L40.4468 30.2427Z" fill="#F5A623"/>
</svg>
