<svg width="13" height="13" viewBox="0 0 13 13" fill="none" xmlns="http://www.w3.org/2000/svg">
<path d="M3.12631 11V12.5H9.12631V11H3.12631Z" stroke="#F5A623" stroke-linecap="round"/>
<path d="M4.12631 11V9.5H4.62631M8.12631 11V9.5H4.62631M4.62631 9.5C4.98732 8.97003 5.1259 8.65037 5.12631 8" stroke="#F5A623" stroke-linecap="round"/>
<path d="M7.62631 9.5C7.2843 8.91208 7.16048 8.58419 7.12631 8" stroke="#F5A623"/>
<path d="M9.92067 1.5C9.98846 1.18434 10.0569 0.851548 10.1263 0.5H2.12634C2.68526 3.66109 3.19728 5.39384 4.49976 7.18759C4.87177 7.69992 5.47898 7.977 6.11207 7.98584C6.75514 7.99482 7.38131 7.72812 7.76048 7.20865C7.92716 6.9803 8.08269 6.74661 8.22935 6.5M10.1263 0.5L9.92067 1.5M9.92067 1.5C9.396 3.94311 8.90747 5.35973 8.22935 6.5M9.92067 1.5H10.7735H11.6263C11.1263 6.5 9.70928 6.45057 8.22935 6.5M2.31151 1.5C2.85208 3.94311 3.35542 5.35973 4.05408 6.5C2.52931 6.45057 1.06934 6.5 0.554159 1.5H2.31151Z" stroke="#F5A623"/>
</svg>
