<svg width="14" height="11" viewBox="0 0 14 11" fill="none" xmlns="http://www.w3.org/2000/svg">
<path d="M13.5 10.5V0.5H1.5L0.5 1.5V10.5H13.5Z" fill="#D2D2D2" stroke="#D2D2D2"/>
<path d="M3.67756 6.59091V9.5H3.20881L1.83807 7.51847H1.81392V9.5H1.28693V6.59091H1.75852L3.12784 8.57386H3.15341V6.59091H3.67756ZM4.25178 9.5V6.59091H6.14382V7.03267H4.77876V7.82244H6.04581V8.2642H4.77876V9.05824H6.15518V9.5H4.25178ZM7.29368 9.5L6.47266 6.59091H7.03942L7.56357 8.72869H7.59055L8.15021 6.59091H8.66584L9.22692 8.73011H9.25249L9.77663 6.59091H10.3434L9.52237 9.5H9.00249L8.4201 7.45881H8.39737L7.81357 9.5H7.29368ZM12.2702 7.39062C12.257 7.26657 12.2011 7.16998 12.1026 7.10085C12.0051 7.03172 11.8782 6.99716 11.7219 6.99716C11.6121 6.99716 11.5179 7.01373 11.4393 7.04688C11.3607 7.08002 11.3005 7.125 11.2589 7.18182C11.2172 7.23864 11.1959 7.3035 11.195 7.37642C11.195 7.43703 11.2087 7.48958 11.2362 7.53409C11.2646 7.5786 11.3029 7.61648 11.3512 7.64773C11.3995 7.67803 11.453 7.7036 11.5117 7.72443C11.5704 7.74527 11.6296 7.76278 11.6893 7.77699L11.962 7.84517C12.0719 7.87074 12.1774 7.9053 12.2788 7.94886C12.381 7.99242 12.4724 8.04735 12.5529 8.11364C12.6344 8.17992 12.6987 8.25994 12.7461 8.35369C12.7934 8.44744 12.8171 8.55729 12.8171 8.68324C12.8171 8.85369 12.7736 9.00379 12.6864 9.13352C12.5993 9.26231 12.4734 9.36316 12.3086 9.43608C12.1448 9.50805 11.9464 9.54403 11.7134 9.54403C11.4871 9.54403 11.2906 9.509 11.1239 9.43892C10.9582 9.36884 10.8285 9.26657 10.7347 9.1321C10.6419 8.99763 10.5917 8.83381 10.5842 8.64062H11.1026C11.1102 8.74195 11.1415 8.82623 11.1964 8.89347C11.2513 8.9607 11.3228 9.01089 11.4109 9.04403C11.4999 9.07718 11.5993 9.09375 11.7092 9.09375C11.8237 9.09375 11.9241 9.0767 12.0103 9.04261C12.0974 9.00758 12.1656 8.95928 12.2148 8.89773C12.2641 8.83523 12.2892 8.76231 12.2901 8.67898C12.2892 8.60322 12.2669 8.54072 12.2234 8.49148C12.1798 8.44129 12.1187 8.39962 12.0401 8.36648C11.9625 8.33239 11.8716 8.30208 11.7674 8.27557L11.4364 8.19034C11.1969 8.12879 11.0075 8.03551 10.8683 7.91051C10.73 7.78456 10.6609 7.61742 10.6609 7.40909C10.6609 7.23769 10.7073 7.08759 10.8001 6.95881C10.8938 6.83002 11.0212 6.73011 11.1822 6.65909C11.3432 6.58712 11.5254 6.55114 11.729 6.55114C11.9355 6.55114 12.1164 6.58712 12.2717 6.65909C12.4279 6.73011 12.5505 6.82907 12.6396 6.95597C12.7286 7.08191 12.7745 7.2268 12.7773 7.39062H12.2702Z" fill="#F5A623"/>
<rect x="1.5" y="1.5" width="11" height="4" fill="#8D8D8D"/>
</svg>
