<svg width="14" height="13" viewBox="0 0 14 13" fill="none" xmlns="http://www.w3.org/2000/svg">
<path d="M9.8182 12.5H3.27274L6.54547 10.3182L9.8182 12.5Z" fill="#F5A623"/>
<path d="M6.54547 10.3182L9.8182 12.5H3.27274L6.54547 10.3182ZM6.54547 10.3182V0.5M0.545471 5.40909L2.72729 0.5C5.70947 0.5 10.3637 0.5 10.3637 0.5L12.5455 5.40909M2.72729 0.5L4.90911 5.40909M10.3637 0.5L8.18184 5.40909" stroke="#F5A623" stroke-linecap="round"/>
<path d="M5.45455 5.40904C5.45455 5.76719 5.384 6.12183 5.24694 6.45272C5.10989 6.78361 4.909 7.08426 4.65575 7.33751C4.4025 7.59076 4.10184 7.79165 3.77095 7.92871C3.44007 8.06577 3.08542 8.13631 2.72727 8.13631C2.36912 8.13631 2.01448 8.06577 1.68359 7.92871C1.3527 7.79165 1.05205 7.59076 0.7988 7.33751C0.545549 7.08426 0.344659 6.78361 0.207601 6.45272C0.0705429 6.12183 -3.13105e-08 5.76719 0 5.40904L2.72727 5.40904H5.45455Z" fill="#F5A623"/>
<path d="M13.0909 5.40904C13.0909 5.76719 13.0204 6.12183 12.8833 6.45272C12.7462 6.78361 12.5453 7.08426 12.2921 7.33751C12.0388 7.59076 11.7382 7.79165 11.4073 7.92871C11.0764 8.06577 10.7218 8.13631 10.3636 8.13631C10.0055 8.13631 9.65083 8.06577 9.31994 7.92871C8.98906 7.79165 8.6884 7.59076 8.43515 7.33751C8.1819 7.08426 7.98101 6.78361 7.84395 6.45272C7.7069 6.12183 7.63635 5.76719 7.63635 5.40904L10.3636 5.40904H13.0909Z" fill="#F5A623"/>
</svg>
